<svg width="30" height="29" viewBox="0 0 30 29" fill="none" xmlns="http://www.w3.org/2000/svg">
<path d="M28.5328 10.0151C31.0097 17.6293 26.8446 25.8074 19.2304 28.2843C11.6161 30.7613 3.43805 26.5961 0.961097 18.9819C-1.51586 11.3677 2.64929 3.1896 10.2635 0.712648C11.713 0.242165 13.2282 0 14.7504 0C21.0293 0.00345943 26.592 4.04408 28.5328 10.0151ZM14.7539 1.30767C7.46829 1.31804 1.56995 7.23022 1.58033 14.5192C1.59071 21.8083 7.50288 27.7031 14.7919 27.6928C22.0775 27.6824 27.9758 21.7702 27.9654 14.4812C27.962 13.1009 27.744 11.7309 27.3185 10.4198C25.5473 4.97813 20.4723 1.29729 14.7539 1.30767Z" fill="white"/>
<path d="M6.79733 7.02368L12.9655 15.271L6.75928 21.9788H8.15689L13.5917 16.1082L17.9817 21.9788H22.7349L16.2174 13.268L21.9946 7.02714H20.597L15.5981 12.4308L11.5541 7.02368H6.79733ZM8.85224 8.05113H11.0351L20.68 20.9479H18.4971L8.85224 8.05113Z" fill="white"/>
</svg>
