<svg width="30" height="29" viewBox="0 0 30 29" fill="none" xmlns="http://www.w3.org/2000/svg">
<path d="M28.7869 10.0156C31.2639 17.6298 27.0987 25.8079 19.4845 28.2848C11.8703 30.7618 3.6922 26.5966 1.21525 18.9824C-1.26171 11.3682 2.90345 3.19009 10.5177 0.713136C11.9672 0.242653 13.4824 0.000488281 15.0045 0.000488281C21.2834 0.00394772 26.8462 4.04457 28.7869 10.0156ZM15.0045 1.30815C7.71898 1.31853 1.82065 7.23071 1.83103 14.5197C1.8414 21.8088 7.75357 27.7036 15.0426 27.6933C22.3282 27.6829 28.2265 21.7707 28.2161 14.4817C28.2126 13.1014 27.9947 11.7314 27.5692 10.4203C25.8014 4.97862 20.7264 1.29778 15.0045 1.30815Z" fill="white"/>
<path d="M9.55592 11.9731H12.3304V20.895H9.55592V11.9731ZM10.9466 7.53467C11.8322 7.54159 12.5449 8.26115 12.5414 9.15022C12.5345 10.0358 11.8149 10.7485 10.9258 10.745C10.0437 10.7381 9.33105 10.022 9.33105 9.13985C9.33797 8.25423 10.0575 7.53467 10.9466 7.53467Z" fill="white"/>
<path d="M14.0386 11.9752H16.6954V13.1929C17.2351 12.2623 18.2487 11.7088 19.3246 11.7538C22.1267 11.7538 22.6491 13.6011 22.6491 16.0054V20.897H19.9438V16.5589C19.9438 15.5246 19.9438 14.1927 18.5047 14.1927C17.0656 14.1927 16.8407 15.3239 16.8407 16.4344V20.8521H14.0386V11.9752Z" fill="white"/>
</svg>
