<svg width="365" height="192" viewBox="0 0 365 192" fill="none" xmlns="http://www.w3.org/2000/svg">
<path d="M194.805 105.325C194.805 106.896 194.539 108.362 194.008 109.74C193.477 111.099 192.733 112.3 191.777 113.342C190.821 114.384 189.688 115.196 188.36 115.779C187.05 116.362 185.616 116.662 184.058 116.662C182.5 116.662 181.066 116.362 179.756 115.779C178.446 115.196 177.313 114.384 176.356 113.342C175.4 112.3 174.657 111.099 174.126 109.74C173.595 108.38 173.329 106.896 173.329 105.325C173.329 103.753 173.595 102.287 174.126 100.909C174.657 99.5497 175.4 98.3488 176.356 97.3068C177.313 96.2649 178.446 95.4525 179.756 94.8698C181.066 94.287 182.5 93.9868 184.058 93.9868C185.616 93.9868 187.05 94.287 188.36 94.8698C189.67 95.4525 190.821 96.2649 191.777 97.3068C192.733 98.3488 193.477 99.5497 194.008 100.909C194.539 102.269 194.805 103.753 194.805 105.325ZM190.697 105.325C190.697 103.912 190.414 102.64 189.847 101.492C189.281 100.344 188.502 99.4437 187.51 98.7726C186.519 98.1015 185.368 97.766 184.076 97.766C182.783 97.766 181.615 98.1015 180.641 98.7726C179.65 99.4437 178.871 100.344 178.322 101.475C177.755 102.605 177.49 103.894 177.49 105.325C177.49 106.755 177.773 108.009 178.322 109.157C178.871 110.305 179.65 111.205 180.641 111.876C181.632 112.547 182.783 112.883 184.076 112.883C185.368 112.883 186.537 112.547 187.51 111.876C188.502 111.205 189.281 110.305 189.847 109.157C190.414 108.009 190.697 106.737 190.697 105.325Z" fill="#0D1B42"/>
<path d="M214.563 94.234C215.094 94.234 215.555 94.4106 215.944 94.7461C216.334 95.0817 216.528 95.5232 216.528 96.053C216.528 96.3179 216.458 96.6004 216.334 96.9007L208.526 115.108C208.331 115.532 208.066 115.832 207.729 116.044C207.375 116.238 207.021 116.344 206.667 116.344C206.331 116.327 206.012 116.221 205.693 116.009C205.374 115.815 205.127 115.514 204.967 115.143L197.159 96.883C197.089 96.7594 197.053 96.6181 197.036 96.4945C197.018 96.3532 197 96.2296 197 96.106C197 95.5055 197.213 95.0287 197.655 94.7108C198.098 94.3929 198.523 94.2163 198.912 94.2163C199.709 94.2163 200.293 94.6225 200.647 95.4525L207.57 111.682L206.472 111.717L212.81 95.4702C213.165 94.6755 213.749 94.2693 214.545 94.2693L214.563 94.234Z" fill="#0D1B42"/>
<path d="M227.93 99.2494L221.114 115.249C220.972 115.656 220.742 115.956 220.441 116.185C220.14 116.397 219.804 116.521 219.45 116.521C218.883 116.521 218.458 116.362 218.193 116.044C217.927 115.726 217.785 115.338 217.785 114.879C217.785 114.684 217.821 114.49 217.874 114.278L225.735 95.4349C225.894 95.011 226.16 94.6932 226.514 94.4636C226.868 94.234 227.24 94.1457 227.629 94.181C228.001 94.181 228.355 94.287 228.692 94.5165C229.01 94.7285 229.258 95.0463 229.4 95.4525L237.172 113.907C237.278 114.19 237.331 114.437 237.331 114.667C237.331 115.232 237.154 115.691 236.783 116.026C236.411 116.362 236.004 116.539 235.561 116.539C235.189 116.539 234.835 116.415 234.534 116.185C234.233 115.956 233.985 115.638 233.826 115.249L227.045 99.4614L227.966 99.2671L227.93 99.2494ZM222.088 111.4L223.823 107.779H232.356L232.958 111.4H222.088Z" fill="#0D1B42"/>
<path d="M247.087 116.662C245.617 116.662 244.289 116.486 243.103 116.115C241.917 115.744 240.802 115.108 239.722 114.172C239.456 113.943 239.244 113.678 239.084 113.377C238.943 113.077 238.872 112.795 238.872 112.494C238.872 112.018 239.049 111.594 239.385 111.223C239.739 110.852 240.164 110.675 240.695 110.675C241.103 110.675 241.457 110.799 241.775 111.046C242.572 111.7 243.369 112.194 244.165 112.53C244.962 112.865 245.936 113.042 247.087 113.042C247.866 113.042 248.574 112.918 249.229 112.671C249.884 112.424 250.415 112.106 250.805 111.7C251.212 111.294 251.407 110.817 251.407 110.305C251.407 109.669 251.212 109.139 250.84 108.698C250.468 108.256 249.884 107.885 249.105 107.585C248.326 107.285 247.335 107.038 246.131 106.879C244.998 106.72 243.988 106.455 243.139 106.102C242.289 105.748 241.563 105.307 240.979 104.777C240.394 104.247 239.969 103.611 239.668 102.887C239.367 102.163 239.226 101.351 239.226 100.45C239.226 99.0905 239.58 97.9249 240.288 96.9536C240.996 95.9823 241.952 95.2583 243.139 94.7461C244.342 94.234 245.67 93.9868 247.122 93.9868C248.485 93.9868 249.76 94.1987 250.929 94.6049C252.097 95.011 253.053 95.5408 253.779 96.1589C254.381 96.6358 254.7 97.2009 254.7 97.8366C254.7 98.2958 254.523 98.7196 254.169 99.0905C253.814 99.4614 253.39 99.6556 252.912 99.6556C252.593 99.6556 252.31 99.5673 252.062 99.3731C251.725 99.0728 251.265 98.8079 250.698 98.543C250.132 98.2781 249.53 98.0662 248.893 97.8896C248.255 97.713 247.671 97.6247 247.122 97.6247C246.219 97.6247 245.458 97.7483 244.838 97.9779C244.219 98.2075 243.741 98.5254 243.44 98.9316C243.121 99.3377 242.962 99.7969 242.962 100.327C242.962 100.962 243.139 101.475 243.51 101.881C243.882 102.287 244.413 102.623 245.104 102.852C245.794 103.099 246.626 103.311 247.6 103.506C248.857 103.735 249.973 104.018 250.929 104.318C251.885 104.636 252.681 105.042 253.319 105.536C253.956 106.031 254.416 106.649 254.735 107.391C255.054 108.132 255.213 109.051 255.213 110.11C255.213 111.47 254.841 112.653 254.08 113.642C253.319 114.631 252.327 115.391 251.088 115.903C249.849 116.415 248.521 116.698 247.087 116.698V116.662Z" fill="#0D1B42"/>
<path d="M259.321 97.925C258.772 97.925 258.312 97.766 257.94 97.4128C257.568 97.0773 257.391 96.6358 257.391 96.0883C257.391 95.5409 257.568 95.0993 257.94 94.7815C258.312 94.4636 258.772 94.287 259.321 94.287H273.343C273.892 94.287 274.352 94.4459 274.724 94.7991C275.096 95.1347 275.273 95.5762 275.273 96.1236C275.273 96.6711 275.096 97.1126 274.724 97.4305C274.352 97.7484 273.892 97.925 273.343 97.925H259.321ZM266.314 116.344C265.73 116.344 265.234 116.168 264.862 115.797C264.49 115.426 264.296 114.967 264.296 114.419V96.159H268.403V114.419C268.403 114.967 268.208 115.426 267.819 115.797C267.429 116.168 266.934 116.344 266.314 116.344Z" fill="#0D1B42"/>
<path d="M184.217 144.106C182.677 144.106 181.261 143.841 179.968 143.329C178.676 142.799 177.543 142.075 176.587 141.121C175.631 140.168 174.887 139.038 174.374 137.731C173.842 136.424 173.595 135.011 173.595 133.475C173.595 131.938 173.86 130.525 174.374 129.219C174.905 127.912 175.631 126.799 176.587 125.845C177.543 124.892 178.676 124.15 179.968 123.638C181.261 123.108 182.677 122.861 184.217 122.861C185.297 122.861 186.342 123.002 187.351 123.267C188.36 123.532 189.263 123.938 190.042 124.468C190.148 124.521 190.202 124.609 190.255 124.68C190.29 124.768 190.308 124.857 190.308 124.962C190.308 125.157 190.237 125.298 190.095 125.404C189.954 125.51 189.83 125.545 189.741 125.545C189.67 125.545 189.6 125.545 189.529 125.492C189.458 125.439 189.405 125.439 189.352 125.422C188.626 125.015 187.829 124.68 186.962 124.415C186.094 124.168 185.173 124.027 184.217 124.027C182.376 124.027 180.765 124.433 179.349 125.245C177.932 126.057 176.834 127.188 176.038 128.6C175.241 130.013 174.834 131.638 174.834 133.475C174.834 135.311 175.241 136.936 176.038 138.366C176.834 139.797 177.95 140.909 179.349 141.722C180.765 142.534 182.376 142.923 184.217 142.923C185.209 142.923 186.183 142.764 187.139 142.464C188.095 142.163 188.945 141.757 189.67 141.263L189.546 141.792V134.411L189.954 134.799H184.217C184.058 134.799 183.916 134.746 183.81 134.623C183.686 134.499 183.633 134.375 183.633 134.216C183.633 134.04 183.686 133.898 183.81 133.793C183.934 133.687 184.058 133.634 184.217 133.634H190.131C190.308 133.634 190.449 133.687 190.556 133.81C190.662 133.934 190.715 134.075 190.715 134.216V141.634C190.715 141.634 190.697 141.792 190.662 141.898C190.626 142.004 190.556 142.093 190.449 142.163C189.582 142.746 188.608 143.223 187.528 143.576C186.448 143.929 185.35 144.106 184.2 144.106H184.217Z" fill="#0D1B42"/>
<path d="M196.221 143.806C196.026 143.806 195.867 143.753 195.761 143.629C195.655 143.506 195.601 143.382 195.601 143.223V123.744C195.601 123.585 195.655 123.444 195.778 123.338C195.902 123.214 196.026 123.161 196.186 123.161H203.993C205.162 123.161 206.171 123.391 207.056 123.85C207.942 124.309 208.614 124.945 209.11 125.757C209.606 126.57 209.854 127.488 209.854 128.494C209.854 129.395 209.694 130.225 209.358 130.949C209.039 131.673 208.579 132.274 207.995 132.768C207.41 133.245 206.738 133.598 205.994 133.81L204.631 133.581C205.428 133.581 206.171 133.792 206.879 134.181C207.588 134.587 208.172 135.17 208.632 135.947C209.092 136.724 209.305 137.678 209.305 138.79C209.305 139.762 209.358 140.486 209.447 140.998C209.535 141.492 209.659 141.863 209.801 142.11C209.942 142.34 210.119 142.534 210.314 142.675C210.438 142.746 210.526 142.852 210.58 142.976C210.633 143.099 210.65 143.223 210.615 143.382C210.58 143.506 210.509 143.594 210.42 143.664C210.332 143.735 210.243 143.77 210.137 143.806C210.031 143.823 209.925 143.806 209.818 143.753C209.535 143.594 209.269 143.364 209.004 143.046C208.738 142.728 208.508 142.252 208.331 141.598C208.154 140.945 208.066 140.026 208.066 138.826C208.066 137.907 207.924 137.166 207.641 136.618C207.357 136.071 206.986 135.647 206.543 135.347C206.1 135.046 205.622 134.852 205.127 134.764C204.631 134.675 204.171 134.623 203.746 134.623H196.557L196.823 134.269V143.276C196.823 143.435 196.77 143.576 196.646 143.682C196.522 143.806 196.38 143.859 196.203 143.859L196.221 143.806ZM196.54 133.386H204.153C204.95 133.316 205.675 133.068 206.348 132.68C207.021 132.291 207.57 131.726 207.995 131.02C208.42 130.313 208.632 129.466 208.632 128.512C208.632 127.311 208.207 126.305 207.34 125.51C206.49 124.715 205.321 124.309 203.87 124.309H196.699L196.841 124.097V133.687L196.54 133.369V133.386Z" fill="#0D1B42"/>
<path d="M233.525 133.475C233.525 135.046 233.277 136.494 232.799 137.784C232.321 139.091 231.631 140.203 230.745 141.157C229.86 142.11 228.815 142.834 227.612 143.347C226.408 143.859 225.08 144.106 223.646 144.106C222.212 144.106 220.884 143.859 219.68 143.347C218.476 142.834 217.431 142.11 216.546 141.157C215.661 140.203 214.97 139.091 214.492 137.784C214.014 136.477 213.766 135.046 213.766 133.475C213.766 131.903 214.014 130.455 214.492 129.166C214.97 127.859 215.661 126.746 216.546 125.792C217.431 124.839 218.476 124.115 219.68 123.603C220.884 123.091 222.212 122.843 223.646 122.843C225.08 122.843 226.408 123.108 227.612 123.603C228.815 124.115 229.86 124.839 230.745 125.792C231.631 126.746 232.321 127.859 232.799 129.166C233.277 130.472 233.525 131.903 233.525 133.475ZM232.286 133.475C232.286 131.585 231.914 129.925 231.17 128.512C230.427 127.099 229.417 125.987 228.125 125.21C226.833 124.415 225.345 124.026 223.646 124.026C221.946 124.026 220.477 124.415 219.184 125.21C217.874 126.004 216.865 127.099 216.121 128.512C215.378 129.925 215.006 131.585 215.006 133.475C215.006 135.364 215.378 137.024 216.121 138.437C216.865 139.85 217.874 140.962 219.184 141.74C220.494 142.534 221.981 142.923 223.646 142.923C225.31 142.923 226.833 142.534 228.125 141.74C229.417 140.945 230.427 139.85 231.17 138.437C231.914 137.024 232.286 135.364 232.286 133.475Z" fill="#0D1B42"/>
<path d="M252.611 123.143C252.788 123.143 252.929 123.196 253.035 123.32C253.142 123.444 253.195 123.567 253.195 123.726V136.477C253.195 137.872 252.841 139.143 252.168 140.309C251.477 141.457 250.557 142.375 249.424 143.064C248.273 143.753 246.998 144.088 245.599 144.088C244.201 144.088 242.926 143.753 241.758 143.064C240.607 142.375 239.686 141.457 238.996 140.309C238.305 139.161 237.951 137.89 237.951 136.477V123.726C237.951 123.567 238.004 123.426 238.11 123.32C238.217 123.196 238.376 123.143 238.571 123.143C238.748 123.143 238.889 123.196 239.013 123.32C239.137 123.444 239.19 123.567 239.19 123.726V136.477C239.19 137.66 239.474 138.737 240.04 139.709C240.607 140.68 241.386 141.457 242.36 142.04C243.333 142.623 244.413 142.905 245.564 142.905C246.715 142.905 247.83 142.623 248.786 142.04C249.76 141.457 250.521 140.68 251.106 139.709C251.69 138.737 251.973 137.66 251.973 136.477V123.726C251.973 123.567 252.026 123.426 252.133 123.32C252.239 123.196 252.38 123.143 252.557 123.143H252.611Z" fill="#0D1B42"/>
<path d="M269.058 123.143C270.191 123.143 271.165 123.373 271.997 123.85C272.829 124.327 273.484 124.98 273.945 125.828C274.405 126.675 274.635 127.664 274.635 128.777C274.635 129.89 274.405 130.879 273.945 131.762C273.484 132.645 272.829 133.351 271.997 133.863C271.165 134.375 270.174 134.623 269.058 134.623H262.49L262.614 134.411V143.205C262.614 143.364 262.543 143.506 262.419 143.611C262.295 143.735 262.153 143.788 261.994 143.788C261.799 143.788 261.64 143.735 261.534 143.611C261.428 143.488 261.374 143.364 261.374 143.205V123.726C261.374 123.567 261.428 123.426 261.551 123.32C261.675 123.196 261.799 123.143 261.959 123.143H269.058ZM269.058 133.457C269.961 133.457 270.74 133.263 271.378 132.857C272.015 132.45 272.511 131.903 272.865 131.196C273.219 130.49 273.396 129.695 273.396 128.812C273.396 127.929 273.219 127.117 272.865 126.464C272.511 125.81 272.015 125.28 271.378 124.909C270.74 124.539 269.961 124.344 269.058 124.344H262.525L262.614 124.203V133.563L262.49 133.475H269.058V133.457Z" fill="#0D1B42"/>
<path d="M124.074 139.32L122.888 138.702L123.561 136.865L125.402 137.519L124.8 139.338H124.074V139.32ZM127.757 138.102L128.164 136.83L130.094 137.148L129.775 139.091L128.979 139.161L127.846 138.72M119.064 138.543L118.019 137.731L118.993 136.035L120.693 137.007L119.914 138.578H119.17M132.52 137.307L132.679 136L134.626 135.965L134.662 137.907L133.794 138.155L132.697 137.819M114.266 136.936L113.381 135.947L114.638 134.464L116.143 135.717L115.222 137.042L114.443 137.007M137.07 135.664L136.999 134.34L138.911 133.969L139.301 135.876L138.344 136.318L137.3 136.071M109.858 134.464L109.167 133.333L110.672 132.079L111.239 132.468L111.929 133.581L110.938 134.658L110.07 134.605M141.248 133.227L140.947 131.921L142.753 131.214L143.479 133.033L142.948 133.439L142.47 133.704L141.478 133.528M105.98 131.267L105.485 130.031L107.202 129.06L108.158 130.773L107.131 131.603L106.193 131.479M144.984 130.119L144.453 128.918L146.117 127.876L147.144 129.536L146.117 130.437L145.196 130.313M102.74 127.453L102.475 126.146L104.316 125.492L104.706 126.04L104.971 127.347L103.962 127.947L102.953 127.77M148.082 126.393L147.321 125.298L148.79 123.991L150.1 125.439L149.127 126.57L148.277 126.517M100.209 123.091L100.173 121.766L102.103 121.466L102.404 123.408L101.466 123.797L100.386 123.532M150.437 122.19L149.516 121.254L150.702 119.7L152.26 120.883L151.375 122.278H150.596M98.4735 118.34L98.6859 117.033L100.651 117.068L100.598 119.029L99.7482 119.241L98.6151 118.887M151.977 117.634L150.897 116.874L151.8 115.143L153.535 116.044L152.774 117.669H152.048M97.606 113.377L98.0663 112.124L99.9784 112.512L99.5889 114.437L98.863 114.49L97.6768 113.996M152.703 112.848L151.499 112.283L152.083 110.411L153.96 110.993L153.393 112.848H152.721H152.703ZM98.7568 109.669L97.6237 108.998L98.3318 107.179L100.155 107.903L99.4827 109.651H98.7922M151.18 107.055L151.517 105.766L153.464 106.013L153.216 107.938L152.437 108.062L151.269 107.638M99.4649 104.901L98.4558 104.053L99.5004 102.393L101.165 103.435L100.332 104.954H99.5889M149.994 102.499L150.189 101.192L152.154 101.227L152.119 103.17L151.251 103.382L150.118 103.029M101.005 100.327L100.173 99.3024L101.501 97.8543L102.935 99.1788L101.997 100.45L101.182 100.397M150.685 98.596L149.569 97.8896L150.401 96.1236L152.19 96.9536L151.481 98.6313H150.773M103.342 96.106L102.687 94.9404L104.263 93.7572L105.449 95.3289L104.44 96.3532L103.572 96.2826M151.924 93.9161L151.198 92.8212L152.685 91.532L153.978 93.0154L152.986 94.1104L152.136 94.0574M106.405 92.362L105.963 91.1082L107.698 90.2252L108.583 91.9558L107.574 92.7329L106.635 92.5916M155.005 90.1898L154.81 88.8653L156.687 88.3179L157.253 90.1898L156.262 90.755L155.235 90.5607M168.885 88.7064L169.398 87.4702L171.293 87.9823L170.797 89.872H170.107L168.92 89.3775M110.105 89.2009L109.911 87.894L111.805 87.3289L112.372 89.2009L111.363 89.7483L110.353 89.5541M164.972 89.2892L163.963 88.4415L164.99 86.7815L166.654 87.8057L165.84 89.3245H165.096M173.683 88.3532L173.895 87.0464L175.861 87.0993L175.808 89.0596L174.958 89.2539L173.825 88.883M159.271 88.0353L159.643 86.7638L161.591 87.011L161.325 88.9536L160.564 89.0773L159.395 88.6358M114.248 86.7815L114.301 85.457L116.249 85.245L116.461 87.1876L115.541 87.5232L114.461 87.2406M178.269 86.8874L178.198 85.5629L180.11 85.1744L180.517 87.0817L179.543 87.5408L178.499 87.3113M137.902 86.0927L138.362 84.8389L140.292 85.2274L139.902 87.1523L139.177 87.2053L137.99 86.7108M134.025 86.8168L132.98 86.0044L133.954 84.2914L135.653 85.2627L134.874 86.8344H134.131M118.781 85.1391L119.064 83.8322L121.012 83.9735L120.888 85.9338L120.056 86.1104L118.905 85.7219M142.735 85.298L142.682 83.9735L144.612 83.638L144.966 85.5629L144.01 85.9868L142.948 85.7395M129.457 85.7395L128.341 85.0331L129.138 83.2494L130.926 84.0618L130.218 85.7572H129.51M123.579 84.3267L124.074 83.0905L125.969 83.5673L125.509 85.457L124.8 85.4923L123.614 84.9801M182.411 84.3797L182.022 83.1258L183.81 82.2781L184.642 84.0618L183.633 84.8035L182.677 84.6799M146.772 82.7197L146.152 81.5541L147.728 80.4062L148.879 81.9779L147.87 82.9846L146.984 82.8962M185.864 81.0066L185.191 79.8587L186.714 78.6402L187.935 80.1589L186.926 81.2185L186.059 81.1479M149.251 78.5872L148.171 77.8278L149.091 76.0971L150.826 77.0155L150.065 78.6402H149.339M188.431 76.9272L187.493 75.9735L188.679 74.4371L190.237 75.6203L189.334 76.9978H188.555M148.312 72.83L148.613 71.5408L150.561 71.7174L150.384 73.66L149.569 73.8013L148.418 73.3951M189.954 72.3532L188.838 71.6468L189.653 69.8808L191.441 70.6932L190.733 72.3885H190.024M148.95 69.0155L147.746 68.4503L148.312 66.5784L150.189 67.1435L149.622 68.9978H148.95V69.0155ZM189.068 66.4548L189.529 65.2009L191.441 65.5717L191.069 67.4967L190.308 67.5497L189.157 67.0728M149.286 64.2119L148.241 63.3996L149.215 61.7219L150.915 62.6932L150.118 64.2649H149.374M188.13 61.9691L188.272 60.6446L190.237 60.574L190.308 62.5166L189.423 62.7991L188.325 62.4812M150.702 59.6027L149.87 58.5607L151.216 57.1479L152.632 58.4901L151.694 59.7439L150.862 59.691M186.218 57.872L186.041 56.5475L187.935 56.0353L188.466 57.9249L187.475 58.4371L186.448 58.2428M153.181 55.4525L152.614 54.2517L154.261 53.1921L155.323 54.8344L154.296 55.7528L153.393 55.6468M183.403 54.3046L183.368 54.2693L183.332 54.2163L182.836 52.9625L184.536 52.0088L185.049 52.521L185.103 52.574L185.598 53.8278L184.571 54.6402L183.651 54.5166M156.563 52.0088L156.279 50.7196L158.121 50.0486L158.793 51.8852L157.767 52.4857L156.793 52.3091M179.756 51.4261L178.994 50.3311L180.429 49.0066L181.756 50.4547L180.783 51.6027L179.933 51.5497M160.67 49.4128L160.705 48.0706L162.653 47.8587L162.848 49.8013L161.909 50.1545L160.829 49.872M175.631 49.5364L174.657 48.6534L175.737 47.0287L177.366 48.1236L176.516 49.5894H175.754M165.238 47.8587L165.574 46.5695L167.522 46.8168L167.274 48.7594L166.495 48.883L165.326 48.4415M171.151 48.6887L169.983 48.053L170.656 46.2163L172.479 46.8874L171.842 48.6711H171.134L171.151 48.6887Z" fill="#0D1B42"/>
<mask id="mask0_1_72" style="mask-type:luminance" maskUnits="userSpaceOnUse" x="0" y="0" width="365" height="192">
<path d="M364.575 0.423828H0.424927V191.576H364.575V0.423828Z" fill="white"/>
</mask>
<g mask="url(#mask0_1_72)">
<mask id="mask1_1_72" style="mask-type:luminance" maskUnits="userSpaceOnUse" x="0" y="0" width="365" height="192">
<path d="M364.575 0.423828H0.424927V191.576H364.575V0.423828Z" fill="white"/>
</mask>
<g mask="url(#mask1_1_72)">
<mask id="mask2_1_72" style="mask-type:luminance" maskUnits="userSpaceOnUse" x="0" y="0" width="365" height="192">
<path d="M365 0H0V192H365V0Z" fill="white"/>
</mask>
<g mask="url(#mask2_1_72)">
<path d="M130.059 131.196L130.59 130.208L132.166 130.773L131.599 132.344L130.023 131.779M134.166 131.249L134.503 130.172L136.149 130.437L135.884 132.079L135.228 132.15L134.219 131.762M126.766 131.656L125.88 130.967L126.695 129.519L128.147 130.349L127.474 131.691H126.854M138.221 130.614L138.362 129.483H140.026L140.062 131.108L139.318 131.32L138.362 131.02M122.729 130.296L121.968 129.466L123.03 128.194L124.305 129.272L123.543 130.402H122.871M142.098 129.219L142.027 128.088L143.656 127.77L143.992 129.395L143.178 129.784L142.293 129.572M118.976 128.194L118.374 127.241L119.648 126.181L120.711 127.453L119.878 128.389L119.135 128.336M145.674 127.17L145.409 126.075L146.949 125.457L147.569 126.993L146.719 127.559L145.887 127.435M115.665 125.492L115.258 124.433L116.709 123.62L117.541 125.068L116.674 125.775L115.895 125.687M148.773 124.503L148.312 123.479L149.729 122.596L150.596 124.009L149.729 124.786L148.967 124.698M112.85 122.208L112.637 121.113L114.213 120.565L114.762 122.137L113.912 122.649L113.062 122.508M151.393 121.342L150.755 120.406L151.995 119.294L153.11 120.53L152.809 121.007L152.278 121.501L151.552 121.448M110.69 118.499V117.369L112.319 117.104L112.566 118.746L111.77 119.099L110.849 118.887M153.393 117.757L152.614 116.945L153.624 115.638L154.951 116.645L154.19 117.81H153.517M109.238 114.49L109.433 113.377L111.079 113.43L111.044 115.073L110.318 115.249L109.362 114.949M154.739 113.872L153.818 113.219L154.58 111.735L156.049 112.494L155.925 113.06L155.394 113.89H154.774M108.53 110.269L108.902 109.21L110.53 109.545L110.194 111.17L109.539 111.205L108.547 110.799M155.359 109.828L154.332 109.351L154.828 107.762L156.403 108.256L155.925 109.845H155.359V109.828ZM109.504 107.126L108.53 106.561L108.583 105.996L109.149 105.024L110.707 105.642L110.159 107.126H109.557M154.084 104.883L154.385 103.806L156.031 104L155.837 105.642L155.164 105.766L154.172 105.413M110.106 103.082L109.238 102.358L110.123 100.945L111.54 101.828L110.849 103.117H110.212M153.057 101.033L153.234 99.9205H154.898L154.863 101.598L154.137 101.775L153.181 101.492M111.398 99.2141L110.69 98.3488L111.805 97.1126L113.044 98.2428L112.248 99.3201L111.557 99.2848M153.641 97.7307L152.703 97.1126L153.393 95.6115L154.898 96.3002L154.296 97.7307H153.694M113.399 95.6115L112.85 94.6225L113.204 94.181L114.178 93.6159L115.187 94.9404L114.337 95.8234L113.576 95.7528M154.721 93.7572L154.102 92.8212L155.359 91.7439L156.439 92.9978L155.589 93.9338L154.863 93.8985M116.001 92.4327L115.647 91.3554L117.134 90.596L117.896 92.0795L117.028 92.7506L116.231 92.6446M157.218 90.5254L157.041 89.4305L158.634 88.936L159.112 90.5254L158.262 91.0022L157.412 90.8256M168.991 89.2715L169.452 88.2472L171.063 88.6887L170.62 90.2781H170.036L169.009 89.8543M119.064 89.6954L118.887 88.5828L120.48 88.106L120.958 89.6777L120.126 90.1545L119.259 89.9956M165.698 89.7837L164.831 89.0773L165.716 87.6645L167.132 88.5298L166.442 89.8366H165.804M173.099 88.9713L173.294 87.8764L174.958 87.9117L174.922 89.5717L174.214 89.7483L173.24 89.4481M160.883 88.6887L161.166 87.6115L162.812 87.8234L162.6 89.4658L161.927 89.5541L160.953 89.2009M177.012 87.7351L176.941 86.6225L178.57 86.287L178.924 87.9117L178.109 88.2826L177.224 88.0883M122.623 87.6645L122.658 86.5342L124.305 86.34L124.482 88L123.703 88.3002L122.782 88.0706M142.735 87.0817L143.107 86.0221L143.674 85.9868L144.736 86.3576L144.399 87.9647L143.78 88.0177L142.753 87.6115M139.442 87.6821L138.539 87.011L139.371 85.5629L140.823 86.3929L140.15 87.7351H139.531M126.5 86.2693L126.73 85.1921L128.377 85.298L128.271 86.9581L127.704 87.0817H127.562L126.589 86.7815M146.807 86.3929L146.772 85.2627L148.401 84.9625L148.684 86.6049L147.87 86.9581L146.967 86.7461M135.565 86.7815L134.609 86.1634L135.299 84.6446L136.822 85.3157L136.22 86.7638H135.618M130.59 85.5806L131.015 84.5563L132.626 84.9625L132.219 86.5695H131.617L130.608 86.1457M180.588 85.6336L180.251 84.5563L181.756 83.8499L182.465 85.351L181.597 85.9691L180.783 85.8631M150.295 84.2207L149.764 83.2318L151.11 82.2428L152.101 83.585L151.251 84.415L150.508 84.3444M183.527 82.755L182.96 81.7837L184.253 80.7594L185.297 82.0662L184.448 82.9669L183.704 82.9139M152.349 80.6887L151.411 80.0177L152.172 78.5342L153.641 79.2936L153.004 80.6711H152.384M185.651 79.2759L184.872 78.4636L185.899 77.1567L187.209 78.181L186.448 79.3466H185.775M151.552 75.8146L151.8 74.7373L153.464 74.8609L153.323 76.521L152.632 76.6446L151.658 76.3091M186.979 75.3907L186.023 74.7726L186.112 74.2075L186.731 73.2715L188.236 73.9779L187.634 75.4084H187.015M152.136 72.5651L151.11 72.106L151.588 70.5166L153.181 70.9934V71.5585L152.703 72.5651H152.136ZM186.253 70.3929L186.625 69.3333L188.254 69.6512L187.918 71.2759L187.298 71.3289L186.289 70.9227M152.437 68.4857L151.57 67.7969L152.402 66.3488L153.836 67.1788L153.163 68.5033H152.544M185.492 66.6137L185.616 65.4835L187.263 65.4305L187.333 67.0905L186.572 67.3201L185.634 67.0375M153.659 64.5828L152.969 63.6998L153.216 63.1876L154.102 62.4989L155.306 63.6468L154.491 64.7064L153.801 64.6711M183.863 63.117L183.722 62.0044L185.315 61.5629L185.775 63.1523L184.926 63.6115L184.058 63.4349M155.748 61.0684L155.27 60.0442L156.669 59.1435L157.572 60.5386L156.704 61.3157L155.943 61.2274M181.455 60.1148L181.42 60.0795L181.385 60.0442L180.96 58.9669L182.411 58.1545L182.89 58.6137L183.297 59.691L182.429 60.3974L181.632 60.2914M158.616 58.1192L158.386 57.0243L159.962 56.4592L160.528 58.0309L160.068 58.3664L159.679 58.5607L158.829 58.4194M178.322 57.6424L177.667 56.7064L178.906 55.5762L180.021 56.8124L179.189 57.8013L178.481 57.766M162.122 55.9294L162.157 54.7991L163.804 54.6049L163.981 56.2649L163.467 56.4768L163.202 56.5475L162.264 56.3002M174.816 56.0353L173.966 55.2759L174.905 53.8985L176.286 54.8168L175.56 56.0706H174.922M165.999 54.6049L166.282 53.5099L167.929 53.7219L167.734 55.3642L167.062 55.4525L166.07 55.117M171.045 55.2936L170.054 54.7638L170.638 53.2097L172.214 53.7925L171.682 55.2936H171.063H171.045Z" fill="#0D1B42"/>
</g>
</g>
<mask id="mask3_1_72" style="mask-type:luminance" maskUnits="userSpaceOnUse" x="0" y="0" width="365" height="192">
<path d="M364.575 0.423828H0.424927V191.576H364.575V0.423828Z" fill="white"/>
</mask>
<g mask="url(#mask3_1_72)">
<mask id="mask4_1_72" style="mask-type:luminance" maskUnits="userSpaceOnUse" x="0" y="0" width="365" height="192">
<path d="M365 0H0V192H365V0Z" fill="white"/>
</mask>
<g mask="url(#mask4_1_72)">
<path d="M130.059 131.196L130.59 130.208L132.166 130.773L131.599 132.344L130.023 131.779M134.166 131.249L134.503 130.172L136.149 130.437L135.884 132.079L135.228 132.15L134.219 131.762M126.766 131.656L125.88 130.967L126.695 129.519L128.147 130.349L127.474 131.691H126.854M138.221 130.614L138.362 129.483H140.026L140.062 131.108L139.318 131.32L138.362 131.02M122.729 130.296L121.968 129.466L123.03 128.194L124.305 129.272L123.543 130.402H122.871M142.098 129.219L142.027 128.088L143.656 127.77L143.992 129.395L143.178 129.784L142.293 129.572M118.976 128.194L118.374 127.241L119.648 126.181L120.711 127.453L119.878 128.389L119.135 128.336M145.674 127.17L145.409 126.075L146.949 125.457L147.569 126.993L146.719 127.559L145.887 127.435M115.665 125.492L115.258 124.433L116.709 123.62L117.541 125.068L116.674 125.775L115.895 125.687M148.773 124.503L148.312 123.479L149.729 122.596L150.596 124.009L149.729 124.786L148.967 124.698M112.85 122.208L112.637 121.113L114.213 120.565L114.762 122.137L113.912 122.649L113.062 122.508M151.393 121.342L150.755 120.406L151.995 119.294L153.11 120.53L152.809 121.007L152.278 121.501L151.552 121.448M110.69 118.499V117.369L112.319 117.104L112.566 118.746L111.77 119.099L110.849 118.887M153.393 117.757L152.614 116.945L153.624 115.638L154.951 116.645L154.19 117.81H153.517M109.238 114.49L109.433 113.377L111.079 113.43L111.044 115.073L110.318 115.249L109.362 114.949M154.739 113.872L153.818 113.219L154.58 111.735L156.049 112.494L155.925 113.06L155.394 113.89H154.774M108.53 110.269L108.902 109.21L110.53 109.545L110.194 111.17L109.539 111.205L108.547 110.799M155.359 109.828L154.332 109.351L154.828 107.762L156.403 108.256L155.925 109.845H155.359V109.828ZM109.504 107.126L108.53 106.561L108.583 105.996L109.149 105.024L110.707 105.642L110.159 107.126H109.557M154.084 104.883L154.385 103.806L156.031 104L155.837 105.642L155.164 105.766L154.172 105.413M110.106 103.082L109.238 102.358L110.123 100.945L111.54 101.828L110.849 103.117H110.212M153.057 101.033L153.234 99.9205H154.898L154.863 101.598L154.137 101.775L153.181 101.492M111.398 99.2141L110.69 98.3488L111.805 97.1126L113.044 98.2428L112.248 99.3201L111.557 99.2848M153.641 97.7307L152.703 97.1126L153.393 95.6115L154.898 96.3002L154.296 97.7307H153.694M113.399 95.6115L112.85 94.6225L113.204 94.181L114.178 93.6159L115.187 94.9404L114.337 95.8234L113.576 95.7528M154.721 93.7572L154.102 92.8212L155.359 91.7439L156.439 92.9978L155.589 93.9338L154.863 93.8985M116.001 92.4327L115.647 91.3554L117.134 90.596L117.896 92.0795L117.028 92.7506L116.231 92.6446M157.218 90.5254L157.041 89.4305L158.634 88.936L159.112 90.5254L158.262 91.0022L157.412 90.8256M168.991 89.2715L169.452 88.2472L171.063 88.6887L170.62 90.2781H170.036L169.009 89.8543M119.064 89.6954L118.887 88.5828L120.48 88.106L120.958 89.6777L120.126 90.1545L119.259 89.9956M165.698 89.7837L164.831 89.0773L165.716 87.6645L167.132 88.5298L166.442 89.8366H165.804M173.099 88.9713L173.294 87.8764L174.958 87.9117L174.922 89.5717L174.214 89.7483L173.24 89.4481M160.883 88.6887L161.166 87.6115L162.812 87.8234L162.6 89.4658L161.927 89.5541L160.953 89.2009M177.012 87.7351L176.941 86.6225L178.57 86.287L178.924 87.9117L178.109 88.2826L177.224 88.0883M122.623 87.6645L122.658 86.5342L124.305 86.34L124.482 88L123.703 88.3002L122.782 88.0706M142.735 87.0817L143.107 86.0221L143.674 85.9868L144.736 86.3576L144.399 87.9647L143.78 88.0177L142.753 87.6115M139.442 87.6821L138.539 87.011L139.371 85.5629L140.823 86.3929L140.15 87.7351H139.531M126.5 86.2693L126.73 85.1921L128.377 85.298L128.271 86.9581L127.704 87.0817H127.562L126.589 86.7815M146.807 86.3929L146.772 85.2627L148.401 84.9625L148.684 86.6049L147.87 86.9581L146.967 86.7461M135.565 86.7815L134.609 86.1634L135.299 84.6446L136.822 85.3157L136.22 86.7638H135.618M130.59 85.5806L131.015 84.5563L132.626 84.9625L132.219 86.5695H131.617L130.608 86.1457M180.588 85.6336L180.251 84.5563L181.756 83.8499L182.465 85.351L181.597 85.9691L180.783 85.8631M150.295 84.2207L149.764 83.2318L151.11 82.2428L152.101 83.585L151.251 84.415L150.508 84.3444M183.527 82.755L182.96 81.7837L184.253 80.7594L185.297 82.0662L184.448 82.9669L183.704 82.9139M152.349 80.6887L151.411 80.0177L152.172 78.5342L153.641 79.2936L153.004 80.6711H152.384M185.651 79.2759L184.872 78.4636L185.899 77.1567L187.209 78.181L186.448 79.3466H185.775M151.552 75.8146L151.8 74.7373L153.464 74.8609L153.323 76.521L152.632 76.6446L151.658 76.3091M186.979 75.3907L186.023 74.7726L186.112 74.2075L186.731 73.2715L188.236 73.9779L187.634 75.4084H187.015M152.136 72.5651L151.11 72.106L151.588 70.5166L153.181 70.9934V71.5585L152.703 72.5651H152.136ZM186.253 70.3929L186.625 69.3333L188.254 69.6512L187.918 71.2759L187.298 71.3289L186.289 70.9227M152.437 68.4857L151.57 67.7969L152.402 66.3488L153.836 67.1788L153.163 68.5033H152.544M185.492 66.6137L185.616 65.4835L187.263 65.4305L187.333 67.0905L186.572 67.3201L185.634 67.0375M153.659 64.5828L152.969 63.6998L153.216 63.1876L154.102 62.4989L155.306 63.6468L154.491 64.7064L153.801 64.6711M183.863 63.117L183.722 62.0044L185.315 61.5629L185.775 63.1523L184.926 63.6115L184.058 63.4349M155.748 61.0684L155.27 60.0442L156.669 59.1435L157.572 60.5386L156.704 61.3157L155.943 61.2274M181.455 60.1148L181.42 60.0795L181.385 60.0442L180.96 58.9669L182.411 58.1545L182.89 58.6137L183.297 59.691L182.429 60.3974L181.632 60.2914M158.616 58.1192L158.386 57.0243L159.962 56.4592L160.528 58.0309L160.068 58.3664L159.679 58.5607L158.829 58.4194M178.322 57.6424L177.667 56.7064L178.906 55.5762L180.021 56.8124L179.189 57.8013L178.481 57.766M162.122 55.9294L162.157 54.7991L163.804 54.6049L163.981 56.2649L163.467 56.4768L163.202 56.5475L162.264 56.3002M174.816 56.0353L173.966 55.2759L174.905 53.8985L176.286 54.8168L175.56 56.0706H174.922M165.999 54.6049L166.282 53.5099L167.929 53.7219L167.734 55.3642L167.062 55.4525L166.07 55.117M171.045 55.2936L170.054 54.7638L170.638 53.2097L172.214 53.7925L171.682 55.2936H171.063H171.045Z" fill="#0D1B42"/>
</g>
</g>
</g>
<mask id="mask5_1_72" style="mask-type:luminance" maskUnits="userSpaceOnUse" x="0" y="0" width="365" height="192">
<path d="M364.575 0.423828H0.424927V191.576H364.575V0.423828Z" fill="white"/>
</mask>
<g mask="url(#mask5_1_72)">
<mask id="mask6_1_72" style="mask-type:luminance" maskUnits="userSpaceOnUse" x="0" y="0" width="365" height="192">
<path d="M364.575 0.423828H0.424927V191.576H364.575V0.423828Z" fill="white"/>
</mask>
<g mask="url(#mask6_1_72)">
<mask id="mask7_1_72" style="mask-type:luminance" maskUnits="userSpaceOnUse" x="0" y="0" width="365" height="192">
<path d="M365 0H0V192H365V0Z" fill="white"/>
</mask>
<g mask="url(#mask7_1_72)">
<path d="M136.946 126.446L136.096 126.004L136.556 124.662L137.902 125.121L137.442 126.428H136.928L136.946 126.446ZM139.602 125.581L139.885 124.645L141.283 124.874L141.053 126.269L140.469 126.322L139.637 126.004M133.352 125.916L132.59 125.333L133.299 124.097L134.52 124.786L133.954 125.916H133.387M143.072 125.015L143.196 124.062L143.656 123.921L144.594 124.044V125.457L144.169 125.581L143.992 125.616L143.178 125.386M129.882 124.751L129.244 124.044L130.165 122.949L131.245 123.868L130.59 124.821H130.006M146.347 123.85L146.294 122.879L147.693 122.596L147.976 123.991L147.303 124.309L146.524 124.132M126.695 123.002L126.181 122.19L127.261 121.289L128.164 122.384L127.456 123.143L126.836 123.108M149.392 122.102L149.162 121.166L149.534 120.865L150.472 120.636L150.986 121.96L150.26 122.437L149.552 122.313M123.88 120.671L123.526 119.788L124.765 119.099L125.455 120.336L124.712 120.954L124.039 120.883M152.048 119.823L151.676 118.94L152.862 118.181L153.606 119.382L152.88 120.035L152.207 119.947M121.543 117.881L121.348 116.945L122.694 116.486L123.154 117.81L122.428 118.252L121.72 118.128M154.279 117.121L153.748 116.327L154.792 115.391L155.731 116.433L155.04 117.245L154.438 117.21M119.684 114.702V113.748L121.065 113.536L121.277 114.932L120.604 115.214L119.843 115.038M155.996 114.049L155.323 113.36L156.191 112.247L157.306 113.113L156.669 114.119H156.102M118.444 111.258L118.586 110.322L120.002 110.358L119.967 111.77L119.365 111.929L118.551 111.664M157.094 110.728L156.332 110.181L156.988 108.927L158.245 109.581L157.696 110.764H157.165M117.825 107.673L118.161 106.773L119.542 107.073L119.259 108.45L118.728 108.486L117.86 108.132M157.607 107.285L156.74 106.896L157.165 105.554L158.51 105.978L158.103 107.32H157.607V107.285ZM118.639 104.989L117.807 104.512L118.338 103.205L119.648 103.735L119.17 105.007H118.657M156.51 103.082L156.757 102.146L158.156 102.322L158.245 102.799L157.997 103.717L157.43 103.806L156.58 103.506M119.153 101.528L118.409 100.909L119.17 99.7086L120.374 100.468L119.772 101.545H119.241M155.642 99.7969L155.784 98.8609H157.2L157.165 100.291L156.563 100.45L155.731 100.203M120.268 98.2251L119.648 97.4834L120.604 96.4415L121.631 97.3951L120.959 98.3134L120.357 98.2781M156.155 96.9889L155.359 96.4591L155.961 95.1876L157.235 95.7704L156.722 97.0066H156.209M121.95 95.1876L121.49 94.3399L122.605 93.4923L123.455 94.6225L122.729 95.3642L122.092 95.3112M157.076 93.6512L156.563 92.8388L157.625 91.9205L158.563 92.9978L157.837 93.7925L157.235 93.7572M124.198 92.5386L123.897 91.638L125.155 90.9845L125.81 92.2384L125.066 92.7859L124.393 92.6976M159.271 90.9492L159.13 90.0132L160.475 89.6071L160.883 90.9492L160.157 91.3377L159.431 91.2141M169.292 89.8896L169.664 89.0066L171.027 89.3598L170.656 90.7196H170.16L169.292 90.3488M126.854 90.2605L126.713 89.3245L128.076 88.9006L128.483 90.2428L127.757 90.649L127.031 90.5077M166.477 90.3134L165.734 89.6954L166.495 88.4945L167.699 89.2538L167.097 90.3488H166.566M172.762 89.6247L172.939 88.6887L174.356 88.7241L174.32 90.1369L173.701 90.2781L172.886 90.0132M162.352 89.3598L162.618 88.4415L164.034 88.6357L163.839 90.0309L163.273 90.1015L162.441 89.8013M176.073 88.5474L176.02 87.5938L177.401 87.3112L177.684 88.6887L176.994 89.0243L176.233 88.8477M129.829 88.4591L129.864 87.5055L131.263 87.3466L131.422 88.7417L130.749 88.9889L129.97 88.7947M146.896 87.947L147.215 87.0463L148.613 87.3466L148.33 88.7417L147.763 88.777L146.931 88.4238M144.099 88.4768L143.337 87.894L144.045 86.6578L145.285 87.3466L144.718 88.4945H144.187M133.104 87.2936L133.299 86.3576L134.715 86.4459L134.627 87.841L134.025 87.9647L133.192 87.6821M150.348 87.3995L150.313 86.4459L151.712 86.1987L151.959 87.5938L151.269 87.894L150.508 87.7174M140.788 87.7174L139.973 87.2053L140.558 85.9161L141.85 86.4812L141.337 87.7174H140.788ZM136.539 86.6931L136.893 85.8101L138.256 86.1457L137.92 87.5232H137.406L136.556 87.1876M179.048 86.7638L178.764 85.8455L180.039 85.2274L180.659 86.4989L179.933 87.0287L179.242 86.9404M153.27 85.5452L152.827 84.6976L153.978 83.8499L154.81 84.9978L154.084 85.7042L153.447 85.6512M181.526 84.3267L181.031 83.4967L182.146 82.6137L183.013 83.7263L182.305 84.4856L181.686 84.4327M155.04 82.5783L154.279 82.0132L154.952 80.7594L156.209 81.4304L155.677 82.596H155.164M183.368 81.3775L182.695 80.6887L183.562 79.5761L184.66 80.4591L184.483 80.9007L184.023 81.4481H183.456M154.385 78.4106L154.58 77.4923L155.996 77.6159L155.872 79.011L155.288 79.1346L154.456 78.8344M184.483 78.0397L183.669 77.5276L184.271 76.2384L185.563 76.8388L185.049 78.0574H184.536M154.863 75.6556L153.995 75.2494L154.403 73.9073L155.748 74.3135L155.359 75.6556M183.863 73.7836L184.182 72.883L185.581 73.1655L185.28 74.5607L184.731 74.596L183.899 74.2605M155.111 72.1942L154.35 71.5938L155.058 70.3753L156.297 71.0817L155.713 72.2119H155.182M183.208 70.5519L183.314 69.5982L184.731 69.5629L184.766 70.9757L184.129 71.17L183.314 70.9404M156.173 68.8388L155.571 68.0795L156.545 67.0552L157.572 68.0265L156.881 68.9271H156.279M181.845 67.585L181.721 66.6313L183.084 66.2605L183.456 67.6203L182.748 67.9912L182.004 67.8499M157.979 65.8366L157.572 64.9713L158.758 64.1942L159.519 65.3775L158.793 66.0486L158.121 65.9779M179.827 65.0066H179.809L179.774 64.936L179.419 64.0176L180.659 63.3289L181.031 63.6998L181.066 63.7351H181.101L181.438 64.6534L180.712 65.2715L180.039 65.1832M160.422 63.3466L160.228 62.4106L161.555 61.9338L162.033 63.2583L161.325 63.7174L160.599 63.5938M177.171 62.9227L176.622 62.128L177.667 61.1744L178.623 62.2163L177.915 63.0463L177.295 62.9934M163.361 61.4569L163.397 60.5033L164.795 60.3444L164.955 61.7572L164.282 62.0044L163.503 61.8101M174.179 61.5452L173.453 60.9095L174.232 59.7263L175.418 60.5033L174.816 61.5806H174.267M166.672 60.3267L166.92 59.3907L168.319 59.585L168.142 60.9801L167.575 61.0684L166.743 60.7682M170.939 60.9095L170.107 60.4503L170.602 59.1082L171.93 59.6203L171.47 60.9095H170.939Z" fill="#0D1B42"/>
</g>
</g>
<mask id="mask8_1_72" style="mask-type:luminance" maskUnits="userSpaceOnUse" x="0" y="0" width="365" height="192">
<path d="M364.575 0.423828H0.424927V191.576H364.575V0.423828Z" fill="white"/>
</mask>
<g mask="url(#mask8_1_72)">
<mask id="mask9_1_72" style="mask-type:luminance" maskUnits="userSpaceOnUse" x="0" y="0" width="365" height="192">
<path d="M365 0H0V192H365V0Z" fill="white"/>
</mask>
<g mask="url(#mask9_1_72)">
<path d="M136.946 126.446L136.096 126.004L136.556 124.662L137.902 125.121L137.442 126.428H136.928L136.946 126.446ZM139.602 125.581L139.885 124.645L141.283 124.874L141.053 126.269L140.469 126.322L139.637 126.004M133.352 125.916L132.59 125.333L133.299 124.097L134.52 124.786L133.954 125.916H133.387M143.072 125.015L143.196 124.062L143.656 123.921L144.594 124.044V125.457L144.169 125.581L143.992 125.616L143.178 125.386M129.882 124.751L129.244 124.044L130.165 122.949L131.245 123.868L130.59 124.821H130.006M146.347 123.85L146.294 122.879L147.693 122.596L147.976 123.991L147.303 124.309L146.524 124.132M126.695 123.002L126.181 122.19L127.261 121.289L128.164 122.384L127.456 123.143L126.836 123.108M149.392 122.102L149.162 121.166L149.534 120.865L150.472 120.636L150.986 121.96L150.26 122.437L149.552 122.313M123.88 120.671L123.526 119.788L124.765 119.099L125.455 120.336L124.712 120.954L124.039 120.883M152.048 119.823L151.676 118.94L152.862 118.181L153.606 119.382L152.88 120.035L152.207 119.947M121.543 117.881L121.348 116.945L122.694 116.486L123.154 117.81L122.428 118.252L121.72 118.128M154.279 117.121L153.748 116.327L154.792 115.391L155.731 116.433L155.04 117.245L154.438 117.21M119.684 114.702V113.748L121.065 113.536L121.277 114.932L120.604 115.214L119.843 115.038M155.996 114.049L155.323 113.36L156.191 112.247L157.306 113.113L156.669 114.119H156.102M118.444 111.258L118.586 110.322L120.002 110.358L119.967 111.77L119.365 111.929L118.551 111.664M157.094 110.728L156.332 110.181L156.988 108.927L158.245 109.581L157.696 110.764H157.165M117.825 107.673L118.161 106.773L119.542 107.073L119.259 108.45L118.728 108.486L117.86 108.132M157.607 107.285L156.74 106.896L157.165 105.554L158.51 105.978L158.103 107.32H157.607V107.285ZM118.639 104.989L117.807 104.512L118.338 103.205L119.648 103.735L119.17 105.007H118.657M156.51 103.082L156.757 102.146L158.156 102.322L158.245 102.799L157.997 103.717L157.43 103.806L156.58 103.506M119.153 101.528L118.409 100.909L119.17 99.7086L120.374 100.468L119.772 101.545H119.241M155.642 99.7969L155.784 98.8609H157.2L157.165 100.291L156.563 100.45L155.731 100.203M120.268 98.2251L119.648 97.4834L120.604 96.4415L121.631 97.3951L120.959 98.3134L120.357 98.2781M156.155 96.9889L155.359 96.4591L155.961 95.1876L157.235 95.7704L156.722 97.0066H156.209M121.95 95.1876L121.49 94.3399L122.605 93.4923L123.455 94.6225L122.729 95.3642L122.092 95.3112M157.076 93.6512L156.563 92.8388L157.625 91.9205L158.563 92.9978L157.837 93.7925L157.235 93.7572M124.198 92.5386L123.897 91.638L125.155 90.9845L125.81 92.2384L125.066 92.7859L124.393 92.6976M159.271 90.9492L159.13 90.0132L160.475 89.6071L160.883 90.9492L160.157 91.3377L159.431 91.2141M169.292 89.8896L169.664 89.0066L171.027 89.3598L170.656 90.7196H170.16L169.292 90.3488M126.854 90.2605L126.713 89.3245L128.076 88.9006L128.483 90.2428L127.757 90.649L127.031 90.5077M166.477 90.3134L165.734 89.6954L166.495 88.4945L167.699 89.2538L167.097 90.3488H166.566M172.762 89.6247L172.939 88.6887L174.356 88.7241L174.32 90.1369L173.701 90.2781L172.886 90.0132M162.352 89.3598L162.618 88.4415L164.034 88.6357L163.839 90.0309L163.273 90.1015L162.441 89.8013M176.073 88.5474L176.02 87.5938L177.401 87.3112L177.684 88.6887L176.994 89.0243L176.233 88.8477M129.829 88.4591L129.864 87.5055L131.263 87.3466L131.422 88.7417L130.749 88.9889L129.97 88.7947M146.896 87.947L147.215 87.0463L148.613 87.3466L148.33 88.7417L147.763 88.777L146.931 88.4238M144.099 88.4768L143.337 87.894L144.045 86.6578L145.285 87.3466L144.718 88.4945H144.187M133.104 87.2936L133.299 86.3576L134.715 86.4459L134.627 87.841L134.025 87.9647L133.192 87.6821M150.348 87.3995L150.313 86.4459L151.712 86.1987L151.959 87.5938L151.269 87.894L150.508 87.7174M140.788 87.7174L139.973 87.2053L140.558 85.9161L141.85 86.4812L141.337 87.7174H140.788ZM136.539 86.6931L136.893 85.8101L138.256 86.1457L137.92 87.5232H137.406L136.556 87.1876M179.048 86.7638L178.764 85.8455L180.039 85.2274L180.659 86.4989L179.933 87.0287L179.242 86.9404M153.27 85.5452L152.827 84.6976L153.978 83.8499L154.81 84.9978L154.084 85.7042L153.447 85.6512M181.526 84.3267L181.031 83.4967L182.146 82.6137L183.013 83.7263L182.305 84.4856L181.686 84.4327M155.04 82.5783L154.279 82.0132L154.952 80.7594L156.209 81.4304L155.677 82.596H155.164M183.368 81.3775L182.695 80.6887L183.562 79.5761L184.66 80.4591L184.483 80.9007L184.023 81.4481H183.456M154.385 78.4106L154.58 77.4923L155.996 77.6159L155.872 79.011L155.288 79.1346L154.456 78.8344M184.483 78.0397L183.669 77.5276L184.271 76.2384L185.563 76.8388L185.049 78.0574H184.536M154.863 75.6556L153.995 75.2494L154.403 73.9073L155.748 74.3135L155.359 75.6556M183.863 73.7836L184.182 72.883L185.581 73.1655L185.28 74.5607L184.731 74.596L183.899 74.2605M155.111 72.1942L154.35 71.5938L155.058 70.3753L156.297 71.0817L155.713 72.2119H155.182M183.208 70.5519L183.314 69.5982L184.731 69.5629L184.766 70.9757L184.129 71.17L183.314 70.9404M156.173 68.8388L155.571 68.0795L156.545 67.0552L157.572 68.0265L156.881 68.9271H156.279M181.845 67.585L181.721 66.6313L183.084 66.2605L183.456 67.6203L182.748 67.9912L182.004 67.8499M157.979 65.8366L157.572 64.9713L158.758 64.1942L159.519 65.3775L158.793 66.0486L158.121 65.9779M179.827 65.0066H179.809L179.774 64.936L179.419 64.0176L180.659 63.3289L181.031 63.6998L181.066 63.7351H181.101L181.438 64.6534L180.712 65.2715L180.039 65.1832M160.422 63.3466L160.228 62.4106L161.555 61.9338L162.033 63.2583L161.325 63.7174L160.599 63.5938M177.171 62.9227L176.622 62.128L177.667 61.1744L178.623 62.2163L177.915 63.0463L177.295 62.9934M163.361 61.4569L163.397 60.5033L164.795 60.3444L164.955 61.7572L164.282 62.0044L163.503 61.8101M174.179 61.5452L173.453 60.9095L174.232 59.7263L175.418 60.5033L174.816 61.5806H174.267M166.672 60.3267L166.92 59.3907L168.319 59.585L168.142 60.9801L167.575 61.0684L166.743 60.7682M170.939 60.9095L170.107 60.4503L170.602 59.1082L171.93 59.6203L171.47 60.9095H170.939Z" fill="#0D1B42"/>
</g>
</g>
</g>
<path d="M141.956 121.325L141.248 120.954L141.638 119.823L142.788 120.212L142.417 121.307H141.956V121.325ZM144.24 120.583L144.488 119.823L145.674 120.018L145.48 121.201L144.984 121.236L144.293 120.954M138.911 120.865L138.256 120.371L138.858 119.347L139.265 119.453L139.92 119.947L139.425 120.918H138.964M147.161 120.088L147.268 119.258H148.472V120.441L147.94 120.6L147.25 120.406M135.954 119.876L135.406 119.276L136.167 118.358L137.105 119.117L136.539 119.929H136.043M149.977 119.099L149.941 118.269L151.11 118.04L151.357 119.205L150.756 119.488L150.1 119.347M133.246 118.358L132.803 117.669L133.724 116.892L134.485 117.828L133.883 118.499L133.37 118.464M152.526 117.598L152.349 116.804L153.447 116.362L153.889 117.475L153.287 117.881L152.685 117.775M130.838 116.38L130.537 115.62L131.581 115.02L132.183 116.062L131.564 116.574L130.997 116.503M154.792 115.691L154.456 114.949L155.483 114.313L156.102 115.338L155.5 115.885L154.934 115.815M128.819 114.049L128.66 113.254L129.811 112.865L130.041 113.201L130.2 113.996L129.598 114.366L128.979 114.243M156.669 113.413L156.209 112.742L157.094 111.929L157.908 112.812L157.696 113.166L157.306 113.519L156.775 113.483M127.261 111.453V110.57L128.448 110.375L128.642 111.576L128.058 111.823L127.385 111.664M158.121 110.923L157.554 110.34L158.28 109.386L159.236 110.128L159.094 110.499L158.687 110.958H158.209M126.235 108.539L126.358 107.744H127.562L127.527 108.98L126.996 109.121L126.305 108.909M159.077 108.097L158.404 107.62L158.953 106.561L160.033 107.108L159.572 108.115H159.13M125.703 105.483L125.987 104.724L127.155 104.954L126.907 106.137L126.447 106.172L125.721 105.872M159.537 105.148L158.811 104.795L159.165 103.647L160.316 104L159.962 105.13H159.537V105.148ZM126.394 103.188L125.686 102.799L126.128 101.687L127.244 102.146L126.854 103.223H126.429M158.616 101.581L158.811 100.804L159.997 100.927L159.856 102.128L159.36 102.199L158.652 101.934M126.836 100.256L126.217 99.7263L126.854 98.7197L127.881 99.3554L127.368 100.291H126.907M157.873 98.7903L157.997 97.9779H159.201V99.1965L158.67 99.3201L157.979 99.1082M127.793 97.4481L127.279 96.8124L128.094 95.9294L128.961 96.7594L128.394 97.5364H127.899M158.315 96.3709L157.625 95.9294L158.121 94.8521L159.218 95.3466L158.776 96.3709H158.333M129.227 94.8521L128.819 94.1457L129.067 93.8102L129.775 93.4216L130.501 94.3576L129.882 94.9934L129.351 94.9404M159.059 93.5099L158.599 92.8389L159.519 92.0618L160.298 92.9625L160.068 93.298L159.696 93.6336L159.183 93.5982M131.103 92.5386L130.82 91.7793L131.9 91.2318L132.449 92.2914L131.829 92.7859L131.263 92.7152M160.918 91.2141L160.794 90.4018L161.945 90.0486L162.281 91.1965L161.679 91.532L161.06 91.4261M169.434 90.2958L169.753 89.5541L170.921 89.8543L170.602 91.0199H170.178L169.434 90.702M133.334 90.5784L133.21 89.7837L134.361 89.4305L134.715 90.5784L134.095 90.9139L133.493 90.7903M167.026 90.6313L166.406 90.1015L167.026 89.0773L168.053 89.713L167.557 90.649H167.097M172.391 90.0486L172.532 89.2362L173.736 89.2715L173.701 90.4724L173.17 90.596L172.479 90.3664M163.574 89.8543L163.786 89.0773L164.972 89.2185L164.813 90.4194L164.335 90.4901L163.609 90.2252M135.937 89.0949V88.2649L137.158 88.1236L137.3 89.3245L136.733 89.5364L136.061 89.3598M175.241 89.1656L175.206 88.3532L176.392 88.106L176.64 89.2715L176.038 89.5541L175.4 89.4128M150.437 88.6711L150.72 87.9117L151.889 88.1589L151.641 89.3245L151.18 89.3598L150.472 89.0596M148.047 89.0949L147.392 88.6004L147.994 87.5762L149.038 88.1766L148.542 89.1479H148.1M138.699 88.0883L138.858 87.2759L140.062 87.3466L139.991 88.5475L139.478 88.6534L138.787 88.4062M153.429 88.1236L153.394 87.3113L154.58 87.0993L154.792 88.2826L154.208 88.5475L153.553 88.3885M145.285 88.4062L144.594 87.9647L145.09 86.8698L146.17 87.3819L145.745 88.4062H145.285ZM141.673 87.5232L141.974 86.7638L143.16 87.0464L142.859 88.2119H142.434L141.691 87.9117M177.808 87.5585L177.578 86.7815L178.658 86.2693L179.172 87.3642L178.552 87.8057L177.968 87.7174M155.908 86.5166L155.518 85.8102L156.492 85.1038L157.2 86.0751L156.58 86.6755L156.032 86.6225M179.915 85.4746L179.49 84.7682L180.429 84.0088L181.172 84.9448L180.57 85.5806L180.039 85.5453M157.43 83.9912L156.757 83.5144L157.324 82.4547L158.386 83.0199L157.926 84.0088H157.483M181.491 82.9669L180.924 82.3664L181.668 81.4305L182.606 82.1722L182.447 82.5607L182.057 83.0199H181.579M156.846 80.4592L157.023 79.6645L158.209 79.7704L158.103 80.9713L157.607 81.0596L156.899 80.8124M182.429 80.1589L181.739 79.6998L181.81 79.2936L182.252 78.6225L183.35 79.1347L182.907 80.1766H182.465M157.271 78.128L156.527 77.7748L156.881 76.6269L158.032 76.9801L157.678 78.128H157.271ZM181.898 76.5386L182.164 75.7616L183.35 75.9912L183.12 77.1567L182.659 77.1921L181.951 76.9095M157.448 75.1788L156.811 74.6667L157.43 73.6247L158.457 74.2428L157.961 75.1965H157.501M181.332 73.8367L181.402 73.0243L182.606 72.9713L182.659 74.1722L182.111 74.3488L181.42 74.1545M158.351 72.3709L157.837 71.7351L158.67 70.8521L159.537 71.6821L158.953 72.4415L158.457 72.4062M180.163 71.2936L180.057 70.4812L181.208 70.1634L181.526 71.3289L180.924 71.6468L180.305 71.5232M159.856 69.8278L159.502 69.0861L160.529 68.4327L161.184 69.4393L160.564 70.0044L160.015 69.9514M178.428 69.1214L178.393 69.0684L178.092 68.3091L179.136 67.7263L179.49 68.0618L179.791 68.8389L179.172 69.3333L178.605 69.2627M161.927 67.7263L161.75 66.9316L162.104 66.6843L162.901 66.5077L163.308 67.638L162.688 68.0265L162.087 67.9029M176.144 67.3731L175.684 66.702L176.569 65.8896L177.383 66.7726L176.781 67.479L176.268 67.4437M164.424 66.1545L164.459 65.3422L165.645 65.2185L165.787 66.4194L165.22 66.6137L164.547 66.4371M173.595 66.2252L172.993 65.6777L173.665 64.6887L174.657 65.3598L174.143 66.2781H173.683M167.239 65.1832L167.451 64.4062L168.637 64.5475L168.496 65.7483L167.982 65.819L167.292 65.5718M170.868 65.6954L170.142 65.3068L170.567 64.1766L171.7 64.6004L171.311 65.6777H170.85L170.868 65.6954Z" fill="#0D1B42"/>
<path d="M115.895 147.532L114.514 146.826C114.602 145.254 115.275 144.671 116.072 144.706L117.453 145.413C117.364 146.949 116.745 147.55 116.001 147.55H115.948M120.25 146.102L120.711 144.618C122.286 144.424 122.995 144.971 123.083 145.748L122.623 147.249L121.72 147.355L120.339 146.843M110.017 146.667L108.778 145.713C109.149 144.177 109.911 143.717 110.672 143.894L111.911 144.848C111.557 146.26 110.991 146.702 110.336 146.702H110.123M125.863 145.201L126.057 143.647C127.562 143.188 128.359 143.594 128.589 144.353L128.394 145.907L127.368 146.208L126.057 145.819M104.387 144.742L103.342 143.576C103.98 142.146 104.83 141.828 105.538 142.146L106.582 143.294C106.016 144.547 105.485 144.865 104.953 144.865L104.564 144.83M131.209 143.258L131.121 141.687C132.52 140.962 133.369 141.245 133.741 141.934L133.812 143.488L132.679 144.018L131.44 143.735M99.1994 141.845L98.385 140.521C99.2702 139.214 100.173 139.055 100.811 139.497L101.625 140.839C100.917 141.881 100.456 142.093 100.014 142.093L99.4473 142.022M136.149 140.397L135.777 138.896C137.034 137.943 137.92 138.049 138.398 138.667L138.752 140.185L137.565 140.962L136.415 140.768M94.6316 138.084L94.065 136.636C95.1627 135.506 96.0657 135.506 96.6499 136.053L97.2165 137.501L96.0126 138.472L94.9326 138.349M140.487 136.706L139.867 135.294C140.929 134.128 141.832 134.093 142.417 134.623L143.036 136.035C142.222 136.936 141.85 137.095 141.461 137.095L140.77 136.971M90.772 133.545L90.4887 132.027C91.7811 131.108 92.6487 131.267 93.109 131.903L93.41 133.422L92.2415 134.128L91.0552 133.934M144.116 132.327L143.249 131.02C144.081 129.695 144.966 129.483 145.621 129.89L146.489 131.196C145.798 132.291 145.338 132.539 144.86 132.539L144.346 132.468M87.7799 128.406V126.834C89.1963 126.163 90.0461 126.481 90.3648 127.188L90.4002 128.759L89.3025 129.219L88.0454 128.918M146.878 127.347L145.798 126.252C146.365 124.786 147.215 124.433 147.94 124.715L149.038 125.828C148.525 127.117 147.994 127.453 147.427 127.453L147.073 127.417M85.7615 122.843L86.0094 121.307C87.532 120.901 88.311 121.36 88.5235 122.119L88.2579 123.673L87.2487 123.903L85.9209 123.479M148.737 121.996L147.462 121.095C147.763 119.559 148.525 119.064 149.286 119.205L150.561 120.106C150.277 121.554 149.675 122.031 149.003 122.031H148.808M84.7701 117.015L85.3012 115.55C86.8769 115.426 87.5674 116.009 87.6205 116.804L87.1071 118.269L86.2396 118.34L84.8409 117.775M149.587 116.397L148.171 115.726C148.206 114.155 148.843 113.519 149.64 113.536L151.056 114.208C151.021 115.779 150.384 116.397 149.64 116.397H149.605H149.587ZM86.1156 112.653L84.7701 111.876C84.9294 110.322 85.6199 109.757 86.4166 109.828L87.7799 110.587C87.6205 112.106 87.0009 112.636 86.2927 112.636H86.1333L86.1156 112.653ZM147.781 109.545L148.171 108.044C149.746 107.797 150.472 108.327 150.596 109.104L150.189 110.605L149.268 110.746L147.905 110.252M86.93 107.055L85.7438 106.049C86.1865 104.53 86.9832 104.088 87.7268 104.318L88.913 105.325C88.5235 106.702 87.9392 107.108 87.3196 107.108H87.0717M146.382 104.23L146.63 102.693C148.135 102.269 148.932 102.728 149.144 103.47L148.896 105.024L147.887 105.272L146.559 104.865M88.7536 101.651L87.7622 100.45C88.4527 99.0552 89.3202 98.7726 90.0107 99.1082L91.0021 100.309C90.4002 101.51 89.9221 101.81 89.391 101.81L88.9484 101.757M147.197 99.6203L145.887 98.7726C146.135 97.2186 146.843 96.6888 147.622 96.7947L148.932 97.6247L148.808 98.4018L148.082 99.6203H147.25M91.4979 96.6888L90.7366 95.3289C91.6572 94.0751 92.5601 93.9338 93.1975 94.4106L93.9588 95.7704C93.1975 96.7771 92.7726 96.9713 92.3477 96.9713L91.7457 96.883M148.684 94.1457L147.834 92.8389L148.277 92.1678L149.587 91.3201C150.897 92.1678 151.092 93.0684 150.667 93.7219L149.941 94.3753L148.932 94.3046M95.1096 92.2914L94.5962 90.8256C95.747 89.7484 96.6499 89.7837 97.1811 90.3488L97.6945 91.8322L96.5083 92.7682L95.4106 92.6093M152.225 89.7307L151.977 88.1943C153.305 87.3466 154.172 87.5232 154.597 88.1943L154.845 89.7307L153.677 90.4018L152.491 90.1722M168.566 88.0177L169.168 86.5872C170.744 86.5519 171.381 87.1876 171.399 87.9647L170.779 89.3951H169.965L168.549 88.7947M99.4296 88.6004L99.1817 87.064C100.51 86.2163 101.377 86.3929 101.802 87.064L102.05 88.6181L100.881 89.2715L99.6951 89.0419M163.963 88.6711L162.777 87.6821C163.202 86.181 163.981 85.7219 164.742 85.9514L165.946 86.9404C165.557 88.3355 164.972 88.7417 164.37 88.7417H164.105M174.214 87.5762L174.48 86.0397C176.002 85.6336 176.781 86.1104 176.976 86.8698L176.711 88.4062L175.701 88.6358L174.374 88.1943M157.289 87.1876L157.713 85.6865C159.289 85.457 159.997 85.9868 160.121 86.7815L159.696 88.2826L158.776 88.4062L157.412 87.894M179.632 85.8631L179.526 84.2914C180.924 83.5673 181.774 83.8322 182.146 84.521L182.252 86.0751L181.119 86.6049L179.88 86.3223M104.334 85.7572L104.369 84.1854C105.821 83.585 106.653 83.9205 106.954 84.6446L106.919 86.1987L105.839 86.6049L104.564 86.2693M132.166 84.9272L132.679 83.4614C134.255 83.3378 134.945 83.9029 134.998 84.6976L134.467 86.1634L133.564 86.234L132.219 85.6689M127.615 85.7572L126.358 84.8212C126.73 83.2848 127.492 82.8256 128.253 83.0022L129.51 83.9559C129.156 85.3687 128.589 85.8102 127.952 85.8102H127.739M109.716 83.7793L110.035 82.2605C111.575 81.925 112.336 82.4194 112.496 83.1965L112.142 84.7152L111.168 84.9272L109.822 84.468M137.796 83.9559L137.743 82.3841C139.141 81.6777 140.009 81.9779 140.363 82.6843L140.434 84.2561L139.301 84.7506L138.061 84.468M122.216 84.468L120.888 83.638C121.118 82.0662 121.826 81.5364 122.605 81.6601L123.933 82.4901C123.72 83.9735 123.118 84.468 122.428 84.468H122.286M115.311 82.7903L115.895 81.3422H116.692L118.126 81.9073C118.179 83.4614 117.559 84.1325 116.78 84.1678H116.745L115.346 83.5497M184.536 82.8786L184.076 81.3951C185.262 80.3532 186.165 80.4062 186.678 81.0066L187.139 82.4901L185.952 83.3554L184.819 83.1965M142.576 80.9007L141.832 79.5408C142.806 78.287 143.691 78.1987 144.311 78.6578L145.037 80.0353C144.276 81.0243 143.868 81.2009 143.426 81.2009L142.824 81.0949M188.573 78.9051L187.776 77.5629C188.697 76.2914 189.582 76.1501 190.219 76.5916L191.016 77.9338C190.272 78.9581 189.847 79.1876 189.387 79.1876L188.821 79.0993M145.497 76.0618L144.222 75.1612C144.541 73.6071 145.302 73.1303 146.064 73.2715L147.321 74.1898C147.02 75.6203 146.436 76.0795 145.763 76.0795H145.568M191.6 74.0839L190.52 72.9537C191.122 71.5055 191.937 71.1523 192.662 71.4525L193.742 72.5651C193.229 73.8543 192.698 74.1898 192.131 74.1898H191.777M144.382 69.2804L144.736 67.7793C146.276 67.479 147.037 67.9735 147.179 68.7506L146.825 70.2693L145.869 70.4459L144.523 69.9868M193.406 68.6976L192.096 67.8499C192.326 66.2782 193.052 65.766 193.831 65.872L195.159 66.702C194.929 68.1854 194.327 68.6799 193.636 68.6799H193.495M145.179 64.7947L143.762 64.1236C143.798 62.5695 144.435 61.9338 145.232 61.9338L146.648 62.5872V63.3819L145.993 64.7771H145.179V64.7947ZM192.379 61.7572L192.91 60.2914C194.486 60.1678 195.159 60.7506 195.23 61.5276L194.699 62.9934L193.831 63.0817L192.432 62.5166M145.568 59.1435L144.329 58.1899C144.718 56.6711 145.497 56.2119 146.258 56.3885L147.48 57.3422C147.126 58.755 146.559 59.1788 145.922 59.1788H145.692M191.317 56.5298L191.476 54.9757C192.981 54.4812 193.778 54.9051 194.026 55.6468L193.866 57.2009L192.822 57.5188L191.512 57.1302M147.285 53.7395L146.312 52.521C147.037 51.1258 147.887 50.8609 148.596 51.2141L149.569 52.4327L149.215 53.1214L148.454 53.8808L147.48 53.8455M189.086 51.7263L188.874 50.1722C190.219 49.3422 191.087 49.5541 191.494 50.2075L191.689 51.7616L190.538 52.3797L189.334 52.1501M150.207 48.883L149.534 47.4702C150.578 46.287 151.464 46.2163 152.066 46.7285L152.738 48.1413C151.924 49.0596 151.552 49.2362 151.145 49.2362L150.472 49.1126M185.74 47.5408L185.705 47.5055L185.651 47.4525L185.067 45.9691C186.165 44.8565 187.068 44.8565 187.652 45.404L187.758 45.5099L188.325 46.9934L187.139 47.9647L186.059 47.8411M154.155 44.8035L153.836 43.2848C155.111 42.3665 155.996 42.5254 156.456 43.1435L156.757 44.6799L155.571 45.404L154.403 45.2097M181.42 44.1501L180.552 42.8609C181.367 41.5188 182.234 41.2892 182.907 41.713L183.792 43.0022C183.12 44.0971 182.642 44.3444 182.164 44.3444L181.668 44.2737M158.953 41.7837L158.988 40.2296C160.44 39.6291 161.29 39.9823 161.573 40.7064L161.538 42.2782L160.458 42.6843L159.201 42.3488M176.534 41.9426L175.365 40.9007C175.843 39.3996 176.657 38.9934 177.401 39.223L178.57 40.2649C178.127 41.6071 177.56 41.9779 176.958 41.9779H176.675M164.317 39.9294L164.724 38.4283C166.283 38.181 167.008 38.7108 167.132 39.4879L166.725 40.989L165.787 41.1303L164.424 40.6181M171.293 40.9183L169.93 40.1589C170.054 38.5872 170.726 38.0221 171.505 38.0751L172.886 38.8168C172.762 40.3532 172.125 40.9007 171.399 40.9007H171.293V40.9183Z" fill="#0D1B42"/>
</svg>
