<svg width="29" height="29" viewBox="0 0 29 29" fill="none" xmlns="http://www.w3.org/2000/svg">
<path d="M14.495 0.00634766C6.4899 0.00634766 0 6.49624 0 14.5014C0 22.5065 6.4899 28.9964 14.495 28.9964C22.5002 28.9964 28.99 22.5065 28.99 14.5014C28.99 6.49624 22.5002 0.00634766 14.495 0.00634766ZM14.495 27.8859C7.10913 27.8825 1.12432 21.8873 1.12777 14.5014C1.13123 7.11548 7.12643 1.13066 14.5123 1.13412C21.8982 1.13758 27.883 7.13278 27.8796 14.5187C27.8796 16.4075 27.4783 18.2756 26.6999 19.9984C24.5378 24.8001 19.7603 27.8859 14.495 27.8859Z" fill="white"/>
<path d="M18.9514 6.65323H10.0399C8.21673 6.63593 6.72226 8.09581 6.69458 9.91893V19.0899C6.71534 20.9165 8.21327 22.3763 10.0364 22.3556H18.9375C20.7641 22.3763 22.2586 20.9165 22.2828 19.0899V9.91893C22.262 8.09581 20.771 6.63593 18.9514 6.65323ZM20.9509 19.0899C20.9509 20.1588 20.086 21.0237 19.0205 21.0237C18.9963 21.0237 18.9756 21.0237 18.9514 21.0237H10.0399C8.97435 21.0618 8.07835 20.228 8.0403 19.1591C8.0403 19.1349 8.0403 19.1141 8.0403 19.0899V9.91893C8.0403 8.84997 8.90516 7.98511 9.97066 7.98511C9.99488 7.98511 10.0156 7.98511 10.0399 7.98511H18.941C20.0065 7.94706 20.9025 8.78078 20.9405 9.84975C20.9405 9.87396 20.9405 9.89472 20.9405 9.91893L20.9509 19.0899Z" fill="white"/>
<path d="M14.4937 10.4275C12.2416 10.4275 10.415 12.2541 10.415 14.5062C10.415 16.7583 12.2416 18.5848 14.4937 18.5848C16.7458 18.5848 18.5724 16.7583 18.5724 14.5062C18.5724 12.2541 16.7458 10.4275 14.4937 10.4275ZM14.4937 17.1941C12.9889 17.1941 11.7677 15.973 11.7677 14.4681C11.7677 12.9633 12.9889 11.7421 14.4937 11.7421C15.9986 11.7421 17.2197 12.9633 17.2197 14.4681C17.2197 14.4819 17.2197 14.4923 17.2197 14.5062C17.2128 16.0076 15.9986 17.2253 14.4937 17.2322V17.1941Z" fill="white"/>
<path d="M18.8706 11.1773C19.3998 11.1773 19.8289 10.7482 19.8289 10.219C19.8289 9.68977 19.3998 9.26074 18.8706 9.26074C18.3414 9.26074 17.9124 9.68977 17.9124 10.219C17.9124 10.7482 18.3414 11.1773 18.8706 11.1773Z" fill="white"/>
</svg>
