<svg width="415" height="218" viewBox="0 0 415 218" fill="none" xmlns="http://www.w3.org/2000/svg">
<path d="M221.49 119.587C221.49 121.372 221.188 123.036 220.585 124.6C219.981 126.144 219.135 127.508 218.048 128.691C216.961 129.874 215.673 130.796 214.163 131.458C212.673 132.12 211.043 132.46 209.271 132.46C207.5 132.46 205.869 132.12 204.38 131.458C202.89 130.796 201.602 129.874 200.515 128.691C199.428 127.508 198.582 126.144 197.979 124.6C197.375 123.056 197.073 121.372 197.073 119.587C197.073 117.803 197.375 116.139 197.979 114.575C198.582 113.031 199.428 111.667 200.515 110.484C201.602 109.301 202.89 108.379 204.38 107.717C205.869 107.055 207.5 106.714 209.271 106.714C211.043 106.714 212.673 107.055 214.163 107.717C215.653 108.379 216.961 109.301 218.048 110.484C219.135 111.667 219.981 113.031 220.585 114.575C221.188 116.119 221.49 117.803 221.49 119.587ZM216.82 119.587C216.82 117.983 216.498 116.54 215.854 115.236C215.21 113.933 214.324 112.91 213.197 112.148C212.07 111.386 210.761 111.005 209.292 111.005C207.822 111.005 206.494 111.386 205.386 112.148C204.259 112.91 203.373 113.933 202.749 115.216C202.105 116.499 201.803 117.963 201.803 119.587C201.803 121.212 202.125 122.635 202.749 123.939C203.373 125.242 204.259 126.265 205.386 127.027C206.514 127.788 207.822 128.169 209.292 128.169C210.761 128.169 212.09 127.788 213.197 127.027C214.324 126.265 215.21 125.242 215.854 123.939C216.498 122.635 216.82 121.192 216.82 119.587Z" fill="white"/>
<path d="M243.955 106.995C244.559 106.995 245.083 107.195 245.526 107.576C245.968 107.957 246.19 108.458 246.19 109.06C246.19 109.361 246.109 109.682 245.968 110.022L237.091 130.696C236.87 131.177 236.568 131.518 236.185 131.758C235.783 131.979 235.38 132.099 234.977 132.099C234.595 132.079 234.233 131.959 233.87 131.718C233.508 131.498 233.226 131.157 233.045 130.736L224.168 110.002C224.087 109.862 224.047 109.702 224.027 109.561C224.007 109.401 223.986 109.26 223.986 109.12C223.986 108.438 224.228 107.897 224.731 107.536C225.235 107.175 225.718 106.975 226.16 106.975C227.066 106.975 227.731 107.436 228.133 108.378L236.004 126.806L234.756 126.846L241.963 108.398C242.365 107.496 243.029 107.035 243.935 107.035L243.955 106.995Z" fill="white"/>
<path d="M259.154 112.69L251.403 130.856C251.242 131.317 250.981 131.658 250.639 131.919C250.296 132.16 249.914 132.3 249.511 132.3C248.867 132.3 248.384 132.119 248.082 131.759C247.78 131.398 247.619 130.957 247.619 130.435C247.619 130.215 247.659 129.994 247.72 129.753L256.657 108.358C256.839 107.877 257.141 107.516 257.543 107.256C257.946 106.995 258.368 106.895 258.811 106.935C259.234 106.935 259.637 107.055 260.019 107.316C260.381 107.556 260.663 107.917 260.824 108.379L269.661 129.332C269.782 129.653 269.843 129.934 269.843 130.195C269.843 130.836 269.641 131.358 269.219 131.739C268.796 132.119 268.333 132.32 267.83 132.32C267.407 132.32 267.004 132.18 266.662 131.919C266.32 131.658 266.038 131.297 265.857 130.856L258.147 112.93L259.194 112.71L259.154 112.69ZM252.511 126.485L254.483 122.374H264.186L264.87 126.485H252.511Z" fill="white"/>
<path d="M280.934 132.46C279.263 132.46 277.754 132.26 276.405 131.839C275.056 131.418 273.788 130.696 272.56 129.633C272.258 129.373 272.017 129.072 271.835 128.731C271.674 128.39 271.594 128.069 271.594 127.728C271.594 127.187 271.795 126.706 272.178 126.285C272.58 125.864 273.063 125.663 273.667 125.663C274.13 125.663 274.533 125.803 274.895 126.084C275.801 126.826 276.707 127.387 277.613 127.768C278.519 128.149 279.626 128.35 280.934 128.35C281.82 128.35 282.625 128.21 283.37 127.929C284.115 127.648 284.719 127.287 285.162 126.826C285.625 126.365 285.846 125.823 285.846 125.242C285.846 124.52 285.624 123.919 285.202 123.417C284.779 122.916 284.115 122.495 283.229 122.154C282.343 121.813 281.216 121.532 279.847 121.352C278.559 121.171 277.411 120.871 276.445 120.47C275.479 120.069 274.654 119.567 273.989 118.966C273.325 118.364 272.842 117.642 272.5 116.82C272.158 115.998 271.996 115.076 271.996 114.053C271.996 112.509 272.399 111.186 273.204 110.083C274.01 108.98 275.097 108.158 276.445 107.577C277.814 106.995 279.324 106.714 280.974 106.714C282.524 106.714 283.974 106.955 285.302 107.416C286.631 107.877 287.718 108.479 288.543 109.181C289.228 109.722 289.59 110.364 289.59 111.086C289.59 111.607 289.389 112.088 288.986 112.509C288.584 112.93 288.101 113.151 287.557 113.151C287.195 113.151 286.873 113.051 286.591 112.83C286.208 112.489 285.685 112.188 285.041 111.888C284.397 111.587 283.712 111.346 282.987 111.146C282.263 110.945 281.599 110.845 280.974 110.845C279.948 110.845 279.082 110.985 278.378 111.246C277.673 111.507 277.13 111.868 276.787 112.329C276.425 112.79 276.244 113.311 276.244 113.913C276.244 114.635 276.445 115.216 276.868 115.677C277.291 116.139 277.895 116.52 278.68 116.78C279.465 117.061 280.411 117.302 281.518 117.522C282.947 117.783 284.215 118.104 285.302 118.444C286.389 118.805 287.295 119.267 288.02 119.828C288.745 120.389 289.268 121.091 289.63 121.933C289.993 122.776 290.174 123.818 290.174 125.021C290.174 126.565 289.751 127.909 288.886 129.032C288.02 130.155 286.893 131.017 285.484 131.598C284.075 132.18 282.565 132.501 280.934 132.501V132.46Z" fill="white"/>
<path d="M294.844 111.186C294.22 111.186 293.697 111.005 293.274 110.604C292.851 110.223 292.65 109.722 292.65 109.1C292.65 108.479 292.851 107.978 293.274 107.617C293.697 107.256 294.22 107.055 294.844 107.055H310.787C311.411 107.055 311.934 107.236 312.357 107.637C312.78 108.018 312.981 108.519 312.981 109.141C312.981 109.762 312.78 110.263 312.357 110.624C311.934 110.985 311.411 111.186 310.787 111.186H294.844ZM302.795 132.1C302.131 132.1 301.567 131.899 301.145 131.478C300.722 131.057 300.501 130.535 300.501 129.914V109.181H305.171V129.914C305.171 130.535 304.949 131.057 304.506 131.478C304.064 131.899 303.5 132.1 302.795 132.1Z" fill="white"/>
<path d="M209.453 163.62C207.701 163.62 206.091 163.32 204.621 162.738C203.152 162.137 201.864 161.315 200.777 160.232C199.69 159.149 198.844 157.866 198.26 156.382C197.656 154.898 197.375 153.294 197.375 151.549C197.375 149.805 197.677 148.201 198.26 146.717C198.864 145.233 199.69 143.97 200.777 142.887C201.864 141.804 203.152 140.962 204.621 140.381C206.091 139.779 207.701 139.499 209.453 139.499C210.681 139.499 211.868 139.659 213.016 139.96C214.163 140.26 215.19 140.722 216.075 141.323C216.196 141.383 216.257 141.484 216.317 141.564C216.357 141.664 216.377 141.764 216.377 141.885C216.377 142.105 216.297 142.266 216.136 142.386C215.975 142.506 215.834 142.546 215.733 142.546C215.653 142.546 215.572 142.546 215.492 142.486C215.411 142.426 215.351 142.426 215.29 142.406C214.465 141.945 213.559 141.564 212.573 141.263C211.586 140.982 210.54 140.822 209.453 140.822C207.359 140.822 205.527 141.283 203.917 142.205C202.306 143.128 201.058 144.411 200.153 146.015C199.247 147.619 198.784 149.464 198.784 151.549C198.784 153.635 199.247 155.48 200.153 157.104C201.058 158.728 202.327 159.991 203.917 160.914C205.527 161.836 207.359 162.277 209.453 162.277C210.58 162.277 211.687 162.097 212.774 161.756C213.861 161.415 214.827 160.954 215.653 160.392L215.512 160.994V152.612L215.975 153.053H209.453C209.271 153.053 209.11 152.993 208.99 152.853C208.849 152.712 208.788 152.572 208.788 152.392C208.788 152.191 208.849 152.031 208.99 151.91C209.131 151.79 209.271 151.73 209.453 151.73H216.176C216.377 151.73 216.538 151.79 216.659 151.93C216.78 152.071 216.84 152.231 216.84 152.392V160.813C216.84 160.813 216.82 160.994 216.78 161.114C216.74 161.234 216.659 161.335 216.538 161.415C215.552 162.077 214.445 162.618 213.217 163.019C211.989 163.42 210.741 163.62 209.432 163.62H209.453Z" fill="white"/>
<path d="M223.101 163.28C222.879 163.28 222.698 163.219 222.577 163.079C222.457 162.939 222.396 162.798 222.396 162.618V140.501C222.396 140.321 222.457 140.16 222.597 140.04C222.738 139.9 222.879 139.839 223.06 139.839H231.938C233.266 139.839 234.414 140.1 235.42 140.621C236.427 141.143 237.192 141.865 237.755 142.787C238.319 143.709 238.601 144.752 238.601 145.895C238.601 146.918 238.42 147.86 238.037 148.682C237.675 149.504 237.151 150.186 236.487 150.747C235.823 151.289 235.058 151.69 234.212 151.93L232.662 151.67C233.568 151.67 234.414 151.91 235.219 152.352C236.024 152.813 236.688 153.474 237.212 154.357C237.735 155.239 237.977 156.322 237.977 157.585C237.977 158.688 238.037 159.51 238.138 160.091C238.239 160.653 238.379 161.074 238.54 161.355C238.701 161.615 238.903 161.836 239.124 161.996C239.265 162.076 239.366 162.197 239.426 162.337C239.487 162.478 239.507 162.618 239.466 162.798C239.426 162.939 239.346 163.039 239.245 163.119C239.144 163.199 239.044 163.239 238.923 163.28C238.802 163.3 238.681 163.28 238.561 163.219C238.238 163.039 237.937 162.778 237.635 162.417C237.333 162.056 237.071 161.515 236.87 160.773C236.668 160.031 236.568 158.989 236.568 157.625C236.568 156.582 236.407 155.74 236.085 155.119C235.763 154.497 235.34 154.016 234.837 153.675C234.333 153.334 233.79 153.113 233.226 153.013C232.662 152.913 232.139 152.853 231.656 152.853H223.483L223.785 152.452V162.678C223.785 162.858 223.725 163.019 223.584 163.139C223.443 163.28 223.282 163.34 223.081 163.34L223.101 163.28ZM223.463 151.449H232.119C233.025 151.369 233.85 151.088 234.615 150.647C235.38 150.206 236.004 149.564 236.487 148.762C236.97 147.96 237.212 146.998 237.212 145.915C237.212 144.551 236.729 143.409 235.742 142.506C234.776 141.604 233.448 141.143 231.797 141.143H223.644L223.805 140.902V151.79L223.463 151.429V151.449Z" fill="white"/>
<path d="M265.515 151.55C265.515 153.334 265.233 154.978 264.689 156.442C264.146 157.926 263.361 159.189 262.354 160.272C261.348 161.355 260.16 162.177 258.791 162.758C257.422 163.34 255.913 163.621 254.282 163.621C252.652 163.621 251.142 163.34 249.773 162.758C248.404 162.177 247.216 161.355 246.21 160.272C245.203 159.189 244.418 157.926 243.875 156.442C243.331 154.958 243.05 153.334 243.05 151.55C243.05 149.765 243.331 148.121 243.875 146.657C244.418 145.173 245.203 143.91 246.21 142.827C247.216 141.744 248.404 140.922 249.773 140.341C251.142 139.759 252.652 139.479 254.282 139.479C255.913 139.479 257.422 139.779 258.791 140.341C260.16 140.922 261.348 141.744 262.354 142.827C263.361 143.91 264.146 145.173 264.689 146.657C265.233 148.141 265.515 149.765 265.515 151.55ZM264.106 151.55C264.106 149.404 263.683 147.519 262.837 145.915C261.992 144.311 260.845 143.048 259.375 142.165C257.906 141.263 256.215 140.822 254.282 140.822C252.35 140.822 250.679 141.263 249.209 142.165C247.72 143.068 246.572 144.311 245.727 145.915C244.881 147.519 244.459 149.404 244.459 151.55C244.459 153.695 244.881 155.58 245.727 157.184C246.572 158.788 247.72 160.051 249.209 160.934C250.699 161.836 252.39 162.277 254.282 162.277C256.174 162.277 257.906 161.836 259.375 160.934C260.845 160.031 261.992 158.788 262.837 157.184C263.683 155.58 264.106 153.695 264.106 151.55Z" fill="white"/>
<path d="M287.215 139.819C287.416 139.819 287.577 139.879 287.698 140.02C287.819 140.16 287.879 140.301 287.879 140.481V154.958C287.879 156.542 287.476 157.986 286.712 159.309C285.926 160.613 284.88 161.655 283.591 162.437C282.283 163.219 280.834 163.6 279.243 163.6C277.653 163.6 276.204 163.219 274.875 162.437C273.567 161.655 272.52 160.613 271.735 159.309C270.95 158.006 270.547 156.562 270.547 154.958V140.481C270.547 140.301 270.608 140.14 270.728 140.02C270.849 139.879 271.03 139.819 271.252 139.819C271.453 139.819 271.614 139.879 271.755 140.02C271.896 140.16 271.956 140.301 271.956 140.481V154.958C271.956 156.302 272.278 157.525 272.922 158.628C273.567 159.73 274.452 160.613 275.559 161.274C276.667 161.936 277.895 162.257 279.203 162.257C280.511 162.257 281.78 161.936 282.867 161.274C283.974 160.613 284.839 159.73 285.504 158.628C286.168 157.525 286.49 156.302 286.49 154.958V140.481C286.49 140.301 286.55 140.14 286.671 140.02C286.792 139.879 286.953 139.819 287.154 139.819H287.215Z" fill="white"/>
<path d="M305.916 139.819C307.204 139.819 308.311 140.08 309.257 140.621C310.203 141.163 310.948 141.905 311.471 142.867C311.995 143.83 312.256 144.953 312.256 146.216C312.256 147.479 311.995 148.602 311.471 149.604C310.948 150.607 310.203 151.409 309.257 151.991C308.311 152.572 307.184 152.853 305.916 152.853H298.447L298.588 152.612V162.598C298.588 162.778 298.508 162.939 298.367 163.059C298.226 163.199 298.065 163.26 297.884 163.26C297.662 163.26 297.481 163.199 297.36 163.059C297.24 162.919 297.179 162.778 297.179 162.598V140.481C297.179 140.301 297.24 140.14 297.38 140.02C297.521 139.879 297.662 139.819 297.843 139.819H305.916ZM305.916 151.529C306.942 151.529 307.828 151.309 308.553 150.848C309.277 150.386 309.841 149.765 310.243 148.963C310.646 148.161 310.847 147.258 310.847 146.256C310.847 145.253 310.646 144.331 310.243 143.589C309.841 142.847 309.277 142.246 308.553 141.824C307.828 141.403 306.942 141.183 305.916 141.183H298.488L298.588 141.022V151.65L298.447 151.549H305.916V151.529Z" fill="white"/>
<path d="M141.071 158.186L139.722 157.484L140.487 155.399L142.581 156.141L141.896 158.206H141.071V158.186ZM145.258 156.803L145.721 155.359L147.915 155.72L147.553 157.925L146.647 158.006L145.359 157.504M135.374 157.304L134.187 156.382L135.294 154.457L137.226 155.559L136.34 157.344H135.495M150.673 155.9L150.854 154.416L153.068 154.376L153.109 156.582L152.122 156.863L150.874 156.482M129.919 155.479L128.912 154.356L130.342 152.672L132.053 154.096L131.006 155.6L130.12 155.559M155.846 154.035L155.766 152.532L157.94 152.111L158.383 154.276L157.296 154.777L156.108 154.497M124.907 152.672L124.122 151.389L125.833 149.965L126.477 150.406L127.262 151.669L126.135 152.893L125.148 152.832M160.597 151.268L160.255 149.785L162.308 148.983L163.133 151.048L162.53 151.509L161.986 151.81L160.859 151.609M120.498 149.043L119.935 147.639L121.887 146.536L122.974 148.481L121.807 149.424L120.74 149.283M164.845 147.739L164.241 146.376L166.133 145.193L167.3 147.078L166.133 148.1L165.086 147.96M116.814 144.712L116.512 143.228L118.606 142.486L119.049 143.107L119.351 144.591L118.203 145.273L117.056 145.072M168.367 143.508L167.502 142.265L169.172 140.781L170.662 142.426L169.555 143.709L168.589 143.649M113.936 139.759L113.896 138.255L116.09 137.914L116.432 140.12L115.365 140.561L114.137 140.26M171.045 138.736L169.998 137.673L171.347 135.909L173.118 137.252L172.111 138.836H171.226M111.963 134.365L112.205 132.881L114.439 132.921L114.379 135.147L113.412 135.388L112.124 134.987M172.796 133.563L171.568 132.701L172.595 130.736L174.567 131.758L173.702 133.603H172.876M110.977 128.73L111.5 127.307L113.674 127.748L113.231 129.934L112.406 129.994L111.057 129.432M173.621 128.129L172.252 127.487L172.917 125.362L175.05 126.024L174.406 128.129H173.641H173.621ZM112.285 124.52L110.997 123.758L111.802 121.692L113.875 122.515L113.11 124.5H112.325M171.89 121.552L172.273 120.088L174.487 120.369L174.205 122.555L173.319 122.695L171.991 122.214M113.09 119.106L111.943 118.143L113.131 116.258L115.023 117.441L114.077 119.166H113.231M170.541 116.379L170.763 114.895L172.997 114.935L172.957 117.141L171.971 117.381L170.682 116.98M114.842 113.912L113.896 112.749L115.405 111.105L117.036 112.609L115.969 114.053L115.043 113.993M171.326 111.947L170.058 111.145L171.004 109.14L173.037 110.083L172.232 111.987H171.427M117.499 109.12L116.754 107.797L118.546 106.453L119.894 108.238L118.747 109.401L117.76 109.321M172.735 106.634L171.91 105.391L173.601 103.927L175.071 105.611L173.943 106.854L172.977 106.794M120.981 104.869L120.478 103.446L122.451 102.443L123.457 104.408L122.31 105.29L121.243 105.13M176.238 102.403L176.017 100.899L178.15 100.277L178.795 102.403L177.667 103.045L176.5 102.824M192.02 100.719L192.604 99.3149L194.758 99.8964L194.194 102.042H193.409L192.06 101.48M125.188 101.28L124.967 99.7962L127.121 99.1545L127.765 101.28L126.618 101.902L125.47 101.681M187.571 101.38L186.424 100.418L187.591 98.5329L189.484 99.6959L188.558 101.42H187.712M197.475 100.318L197.717 98.8337L199.951 98.8938L199.891 101.12L198.925 101.34L197.636 100.919M181.089 99.9566L181.512 98.5129L183.726 98.7936L183.425 100.999L182.559 101.14L181.23 100.638M129.899 98.5329L129.959 97.0291L132.174 96.7884L132.415 98.9941L131.368 99.3751L130.14 99.0543M202.689 98.6532L202.608 97.1494L204.782 96.7082L205.245 98.8738L204.138 99.3951L202.951 99.1345M156.793 97.7509L157.316 96.3273L159.51 96.7684L159.067 98.954L158.242 99.0142L156.893 98.4527M152.384 98.573L151.196 97.6507L152.304 95.7057L154.236 96.8085L153.35 98.5931H152.505M135.052 96.6681L135.374 95.1843L137.589 95.3447L137.448 97.5704L136.501 97.771L135.193 97.3298M162.288 96.8486L162.228 95.3447L164.422 94.9638L164.824 97.1494L163.737 97.6306L162.53 97.3499M147.191 97.3499L145.922 96.5478L146.828 94.5226L148.861 95.445L148.056 97.3699H147.251M140.507 95.7458L141.071 94.3422L143.225 94.8835L142.702 97.0291L141.896 97.0692L140.548 96.4877M207.399 95.8059L206.956 94.3823L208.99 93.4198L209.936 95.445L208.788 96.2872L207.701 96.1468M166.878 93.9211L166.173 92.5977L167.965 91.2943L169.273 93.0789L168.126 94.2219L167.119 94.1216M211.325 91.9761L210.56 90.6727L212.291 89.2892L213.68 91.0136L212.532 92.2167L211.546 92.1365M169.696 89.229L168.468 88.3668L169.515 86.4018L171.487 87.4444L170.622 89.2892H169.797M214.244 87.3442L213.177 86.2614L214.525 84.5169L216.297 85.8604L215.27 87.4244H214.384M168.629 82.6922L168.971 81.2285L171.185 81.429L170.984 83.6347L170.058 83.7951L168.75 83.3339M215.975 82.1508L214.707 81.3488L215.633 79.3436L217.666 80.266L216.86 82.1909H216.055M169.354 78.3611L167.985 77.7195L168.629 75.594L170.763 76.2356L170.119 78.3411H169.354V78.3611ZM214.968 75.4536L215.492 74.03L217.666 74.4511L217.243 76.6367L216.377 76.6968L215.069 76.1554M169.736 72.9071L168.548 71.9847L169.656 70.0798L171.588 71.1827L170.682 72.9672H169.837M213.901 70.3606L214.062 68.8567L216.297 68.7765L216.377 70.9822L215.371 71.303L214.123 70.9421M171.347 67.6737L170.4 66.4906L171.93 64.8865L173.541 66.4104L172.474 67.8341L171.528 67.7739M211.727 65.7086L211.526 64.2047L213.68 63.6232L214.284 65.7688L213.157 66.3503L211.989 66.1297M174.165 62.9615L173.521 61.598L175.393 60.395L176.6 62.2597L175.433 63.3024L174.406 63.1821M208.527 61.6582L208.486 61.6181L208.446 61.5579L207.882 60.1343L209.815 59.0515L210.399 59.633L210.459 59.6932L211.023 61.1168L209.855 62.0392L208.808 61.8988M178.01 59.0515L177.687 57.5877L179.781 56.8258L180.546 58.9111L179.378 59.5929L178.271 59.3924M204.38 58.3898L203.514 57.1466L205.145 55.6427L206.655 57.287L205.547 58.5903L204.581 58.5302M182.68 56.1039L182.72 54.58L184.934 54.3394L185.156 56.5451L184.089 56.9461L182.861 56.6253M199.69 56.2443L198.582 55.2417L199.81 53.397L201.662 54.6402L200.696 56.3044H199.83M187.873 54.3394L188.256 52.8756L190.47 53.1564L190.188 55.362L189.302 55.5024L187.974 55.0011M194.597 55.2818L193.268 54.56L194.033 52.4746L196.106 53.2366L195.382 55.2618H194.577L194.597 55.2818Z" fill="white"/>
<mask id="mask0_7_433" style="mask-type:luminance" maskUnits="userSpaceOnUse" x="0" y="0" width="415" height="218">
<path d="M414.517 0.481445H0.483124V217.519H414.517V0.481445Z" fill="white"/>
</mask>
<g mask="url(#mask0_7_433)">
<mask id="mask1_7_433" style="mask-type:luminance" maskUnits="userSpaceOnUse" x="0" y="0" width="415" height="218">
<path d="M414.517 0.481445H0.483124V217.519H414.517V0.481445Z" fill="white"/>
</mask>
<g mask="url(#mask1_7_433)">
<mask id="mask2_7_433" style="mask-type:luminance" maskUnits="userSpaceOnUse" x="0" y="0" width="415" height="218">
<path d="M415 0H0V218H415V0Z" fill="white"/>
</mask>
<g mask="url(#mask2_7_433)">
<path d="M147.875 148.962L148.479 147.84L150.27 148.481L149.626 150.266L147.835 149.624M152.545 149.023L152.928 147.8L154.8 148.1L154.498 149.965L153.753 150.045L152.605 149.604M144.131 149.484L143.124 148.702L144.05 147.058L145.701 148L144.936 149.524H144.231M157.155 148.301L157.316 147.017H159.208L159.248 148.862L158.403 149.103L157.316 148.762M139.541 147.94L138.676 146.997L139.883 145.554L141.333 146.777L140.467 148.06H139.702M161.563 146.717L161.483 145.433L163.335 145.072L163.717 146.917L162.791 147.358L161.785 147.118M135.274 145.554L134.589 144.471L136.039 143.268L137.246 144.712L136.3 145.774L135.455 145.714M165.63 144.391L165.328 143.148L167.079 142.446L167.784 144.19L166.817 144.832L165.871 144.692M131.509 142.486L131.046 141.283L132.697 140.36L133.643 142.005L132.657 142.807L131.771 142.706M169.152 141.363L168.629 140.2L170.239 139.197L171.226 140.802L170.239 141.684L169.374 141.584M128.309 138.756L128.067 137.513L129.859 136.891L130.483 138.676L129.516 139.258L128.55 139.097M172.132 137.774L171.407 136.711L172.816 135.448L174.084 136.851L173.742 137.393L173.138 137.954L172.313 137.894M125.853 134.545V133.262L127.705 132.961L127.987 134.826L127.081 135.227L126.034 134.987M174.406 133.703L173.521 132.781L174.668 131.297L176.178 132.44L175.312 133.763H174.547M124.202 129.994L124.424 128.731L126.296 128.791L126.255 130.655L125.43 130.856L124.343 130.515M175.936 129.292L174.889 128.55L175.755 126.866L177.426 127.728L177.285 128.37L176.681 129.312H175.976M123.397 125.201L123.82 123.998L125.672 124.379L125.289 126.224L124.544 126.264L123.417 125.803M176.641 124.7L175.473 124.159L176.037 122.354L177.828 122.916L177.285 124.72H176.641V124.7ZM124.504 121.632L123.397 120.991L123.457 120.349L124.101 119.246L125.873 119.948L125.249 121.632H124.564M175.191 119.086L175.534 117.863L177.406 118.083L177.184 119.948L176.419 120.088L175.292 119.687M125.188 117.04L124.202 116.218L125.209 114.614L126.819 115.617L126.034 117.081H125.309M174.024 114.715L174.225 113.451H176.117L176.077 115.356L175.252 115.557L174.165 115.236M126.658 112.649L125.853 111.667L127.121 110.263L128.53 111.546L127.624 112.77L126.839 112.729M174.688 110.965L173.621 110.263L174.406 108.559L176.117 109.341L175.433 110.965H174.748M128.933 108.559L128.309 107.436L128.711 106.935L129.818 106.293L130.966 107.797L130 108.799L129.134 108.719M175.916 106.453L175.211 105.391L176.641 104.167L177.869 105.591L176.902 106.654L176.077 106.614M131.892 104.949L131.489 103.726L133.18 102.864L134.046 104.548L133.059 105.31L132.153 105.19M178.754 102.784L178.553 101.541L180.365 100.979L180.908 102.784L179.942 103.325L178.976 103.125M192.141 101.36L192.664 100.197L194.496 100.699L193.993 102.503H193.328L192.161 102.022M135.374 101.841L135.173 100.578L136.985 100.037L137.528 101.821L136.582 102.363L135.596 102.182M188.397 101.942L187.41 101.14L188.417 99.5355L190.027 100.518L189.242 102.002H188.517M196.811 101.019L197.032 99.7761L198.925 99.8162L198.884 101.701L198.079 101.902L196.972 101.561M182.921 100.699L183.243 99.4754L185.115 99.716L184.874 101.581L184.109 101.681L183.002 101.28M201.26 99.6157L201.179 98.3525L203.031 97.9715L203.434 99.8162L202.508 100.237L201.501 100.017M139.42 99.5355L139.461 98.2522L141.333 98.0317L141.534 99.9165L140.648 100.257L139.602 99.9967M162.288 98.8738L162.711 97.6707L163.355 97.6306L164.563 98.0517L164.18 99.8764L163.476 99.9366L162.308 99.4754M158.544 99.5556L157.517 98.7936L158.463 97.1494L160.114 98.0918L159.349 99.6157H158.644M143.829 97.9515L144.091 96.7283L145.963 96.8486L145.842 98.7335L145.198 98.8738H145.037L143.929 98.533M166.918 98.0918L166.878 96.8085L168.73 96.4676L169.052 98.3324L168.126 98.7335L167.099 98.4928M154.135 98.533L153.048 97.8312L153.833 96.1067L155.565 96.8687L154.88 98.5129H154.196M148.479 97.1694L148.962 96.0065L150.794 96.4676L150.331 98.2923H149.646L148.499 97.8111M205.326 97.2296L204.943 96.0065L206.655 95.2044L207.46 96.9088L206.473 97.6106L205.547 97.4903M170.884 95.6255L170.28 94.5026L171.81 93.3797L172.937 94.9036L171.971 95.8461L171.125 95.7658M208.668 93.9612L208.023 92.8584L209.493 91.6954L210.681 93.1792L209.714 94.2018L208.869 94.1417M173.219 91.6152L172.152 90.8532L173.017 89.1689L174.688 90.0311L173.963 91.5951H173.259M211.083 90.0111L210.197 89.0887L211.365 87.6049L212.855 88.7679L211.989 90.0913H211.224M172.313 86.081L172.595 84.8578L174.487 84.9982L174.326 86.883L173.541 87.0234L172.434 86.6424M212.593 85.5997L211.506 84.8979L211.607 84.2563L212.311 83.1936L214.022 83.9956L213.338 85.6198H212.633M172.977 82.3915L171.81 81.8702L172.353 80.0655L174.165 80.6069V81.2486L173.621 82.3915H172.977ZM211.768 79.9252L212.19 78.7221L214.042 79.083L213.66 80.9277L212.955 80.9879L211.808 80.5267M173.319 77.7596L172.333 76.9776L173.279 75.3334L174.91 76.2758L174.145 77.7796H173.44M210.902 75.6341L211.043 74.3508L212.915 74.2907L212.995 76.1755L212.13 76.4362L211.063 76.1154M174.708 73.3282L173.923 72.3256L174.205 71.7441L175.211 70.9621L176.58 72.2655L175.654 73.4686L174.869 73.4285M209.05 71.6639L208.889 70.4007L210.701 69.8994L211.224 71.704L210.258 72.2254L209.271 72.0249M177.084 69.338L176.54 68.175L178.13 67.1523L179.157 68.7364L178.171 69.6187L177.305 69.5184M206.312 68.2552L206.272 68.2151L206.232 68.175L205.749 66.9518L207.399 66.0295L207.943 66.5508L208.406 67.7739L207.419 68.576L206.514 68.4557M180.345 65.9894L180.083 64.7462L181.875 64.1045L182.519 65.8891L181.995 66.2701L181.552 66.4906L180.586 66.3302M202.749 65.448L202.005 64.3852L203.414 63.1019L204.682 64.5055L203.736 65.6284L202.93 65.5883M184.33 63.503L184.371 62.2197L186.243 61.9991L186.444 63.884L185.86 64.1246L185.558 64.2048L184.491 63.9241M198.764 63.6233L197.797 62.7611L198.864 61.1971L200.434 62.2397L199.609 63.6634H198.884M188.739 61.9991L189.061 60.7559L190.933 60.9965L190.712 62.8613L189.947 62.9616L188.819 62.5806M194.476 62.7811L193.349 62.1796L194.013 60.415L195.804 61.0767L195.201 62.7811H194.496H194.476Z" fill="white"/>
</g>
</g>
<mask id="mask3_7_433" style="mask-type:luminance" maskUnits="userSpaceOnUse" x="0" y="0" width="415" height="218">
<path d="M414.517 0.481445H0.483124V217.519H414.517V0.481445Z" fill="white"/>
</mask>
<g mask="url(#mask3_7_433)">
<mask id="mask4_7_433" style="mask-type:luminance" maskUnits="userSpaceOnUse" x="0" y="0" width="415" height="218">
<path d="M415 0H0V218H415V0Z" fill="white"/>
</mask>
<g mask="url(#mask4_7_433)">
<path d="M147.875 148.962L148.479 147.84L150.27 148.481L149.626 150.266L147.835 149.624M152.545 149.023L152.928 147.8L154.8 148.1L154.498 149.965L153.753 150.045L152.605 149.604M144.131 149.484L143.124 148.702L144.05 147.058L145.701 148L144.936 149.524H144.231M157.155 148.301L157.316 147.017H159.208L159.248 148.862L158.403 149.103L157.316 148.762M139.541 147.94L138.676 146.997L139.883 145.554L141.333 146.777L140.467 148.06H139.702M161.563 146.717L161.483 145.433L163.335 145.072L163.717 146.917L162.791 147.358L161.785 147.118M135.274 145.554L134.589 144.471L136.039 143.268L137.246 144.712L136.3 145.774L135.455 145.714M165.63 144.391L165.328 143.148L167.079 142.446L167.784 144.19L166.817 144.832L165.871 144.692M131.509 142.486L131.046 141.283L132.697 140.36L133.643 142.005L132.657 142.807L131.771 142.706M169.152 141.363L168.629 140.2L170.239 139.197L171.226 140.802L170.239 141.684L169.374 141.584M128.309 138.756L128.067 137.513L129.859 136.891L130.483 138.676L129.516 139.258L128.55 139.097M172.132 137.774L171.407 136.711L172.816 135.448L174.084 136.851L173.742 137.393L173.138 137.954L172.313 137.894M125.853 134.545V133.262L127.705 132.961L127.987 134.826L127.081 135.227L126.034 134.987M174.406 133.703L173.521 132.781L174.668 131.297L176.178 132.44L175.312 133.763H174.547M124.202 129.994L124.424 128.731L126.296 128.791L126.255 130.655L125.43 130.856L124.343 130.515M175.936 129.292L174.889 128.55L175.755 126.866L177.426 127.728L177.285 128.37L176.681 129.312H175.976M123.397 125.201L123.82 123.998L125.672 124.379L125.289 126.224L124.544 126.264L123.417 125.803M176.641 124.7L175.473 124.159L176.037 122.354L177.828 122.916L177.285 124.72H176.641V124.7ZM124.504 121.632L123.397 120.991L123.457 120.349L124.101 119.246L125.873 119.948L125.249 121.632H124.564M175.191 119.086L175.534 117.863L177.406 118.083L177.184 119.948L176.419 120.088L175.292 119.687M125.188 117.04L124.202 116.218L125.209 114.614L126.819 115.617L126.034 117.081H125.309M174.024 114.715L174.225 113.451H176.117L176.077 115.356L175.252 115.557L174.165 115.236M126.658 112.649L125.853 111.667L127.121 110.263L128.53 111.546L127.624 112.77L126.839 112.729M174.688 110.965L173.621 110.263L174.406 108.559L176.117 109.341L175.433 110.965H174.748M128.933 108.559L128.309 107.436L128.711 106.935L129.818 106.293L130.966 107.797L130 108.799L129.134 108.719M175.916 106.453L175.211 105.391L176.641 104.167L177.869 105.591L176.902 106.654L176.077 106.614M131.892 104.949L131.489 103.726L133.18 102.864L134.046 104.548L133.059 105.31L132.153 105.19M178.754 102.784L178.553 101.541L180.365 100.979L180.908 102.784L179.942 103.325L178.976 103.125M192.141 101.36L192.664 100.197L194.496 100.699L193.993 102.503H193.328L192.161 102.022M135.374 101.841L135.173 100.578L136.985 100.037L137.528 101.821L136.582 102.363L135.596 102.182M188.397 101.942L187.41 101.14L188.417 99.5355L190.027 100.518L189.242 102.002H188.517M196.811 101.019L197.032 99.7761L198.925 99.8162L198.884 101.701L198.079 101.902L196.972 101.561M182.921 100.699L183.243 99.4754L185.115 99.716L184.874 101.581L184.109 101.681L183.002 101.28M201.26 99.6157L201.179 98.3525L203.031 97.9715L203.434 99.8162L202.508 100.237L201.501 100.017M139.42 99.5355L139.461 98.2522L141.333 98.0317L141.534 99.9165L140.648 100.257L139.602 99.9967M162.288 98.8738L162.711 97.6707L163.355 97.6306L164.563 98.0517L164.18 99.8764L163.476 99.9366L162.308 99.4754M158.544 99.5556L157.517 98.7936L158.463 97.1494L160.114 98.0918L159.349 99.6157H158.644M143.829 97.9515L144.091 96.7283L145.963 96.8486L145.842 98.7335L145.198 98.8738H145.037L143.929 98.533M166.918 98.0918L166.878 96.8085L168.73 96.4676L169.052 98.3324L168.126 98.7335L167.099 98.4928M154.135 98.533L153.048 97.8312L153.833 96.1067L155.565 96.8687L154.88 98.5129H154.196M148.479 97.1694L148.962 96.0065L150.794 96.4676L150.331 98.2923H149.646L148.499 97.8111M205.326 97.2296L204.943 96.0065L206.655 95.2044L207.46 96.9088L206.473 97.6106L205.547 97.4903M170.884 95.6255L170.28 94.5026L171.81 93.3797L172.937 94.9036L171.971 95.8461L171.125 95.7658M208.668 93.9612L208.023 92.8584L209.493 91.6954L210.681 93.1792L209.714 94.2018L208.869 94.1417M173.219 91.6152L172.152 90.8532L173.017 89.1689L174.688 90.0311L173.963 91.5951H173.259M211.083 90.0111L210.197 89.0887L211.365 87.6049L212.855 88.7679L211.989 90.0913H211.224M172.313 86.081L172.595 84.8578L174.487 84.9982L174.326 86.883L173.541 87.0234L172.434 86.6424M212.593 85.5997L211.506 84.8979L211.607 84.2563L212.311 83.1936L214.022 83.9956L213.338 85.6198H212.633M172.977 82.3915L171.81 81.8702L172.353 80.0655L174.165 80.6069V81.2486L173.621 82.3915H172.977ZM211.768 79.9252L212.19 78.7221L214.042 79.083L213.66 80.9277L212.955 80.9879L211.808 80.5267M173.319 77.7596L172.333 76.9776L173.279 75.3334L174.91 76.2758L174.145 77.7796H173.44M210.902 75.6341L211.043 74.3508L212.915 74.2907L212.995 76.1755L212.13 76.4362L211.063 76.1154M174.708 73.3282L173.923 72.3256L174.205 71.7441L175.211 70.9621L176.58 72.2655L175.654 73.4686L174.869 73.4285M209.05 71.6639L208.889 70.4007L210.701 69.8994L211.224 71.704L210.258 72.2254L209.271 72.0249M177.084 69.338L176.54 68.175L178.13 67.1523L179.157 68.7364L178.171 69.6187L177.305 69.5184M206.312 68.2552L206.272 68.2151L206.232 68.175L205.749 66.9518L207.399 66.0295L207.943 66.5508L208.406 67.7739L207.419 68.576L206.514 68.4557M180.345 65.9894L180.083 64.7462L181.875 64.1045L182.519 65.8891L181.995 66.2701L181.552 66.4906L180.586 66.3302M202.749 65.448L202.005 64.3852L203.414 63.1019L204.682 64.5055L203.736 65.6284L202.93 65.5883M184.33 63.503L184.371 62.2197L186.243 61.9991L186.444 63.884L185.86 64.1246L185.558 64.2048L184.491 63.9241M198.764 63.6233L197.797 62.7611L198.864 61.1971L200.434 62.2397L199.609 63.6634H198.884M188.739 61.9991L189.061 60.7559L190.933 60.9965L190.712 62.8613L189.947 62.9616L188.819 62.5806M194.476 62.7811L193.349 62.1796L194.013 60.415L195.804 61.0767L195.201 62.7811H194.496H194.476Z" fill="white"/>
</g>
</g>
</g>
<mask id="mask5_7_433" style="mask-type:luminance" maskUnits="userSpaceOnUse" x="0" y="0" width="415" height="218">
<path d="M414.517 0.481445H0.483124V217.519H414.517V0.481445Z" fill="white"/>
</mask>
<g mask="url(#mask5_7_433)">
<mask id="mask6_7_433" style="mask-type:luminance" maskUnits="userSpaceOnUse" x="0" y="0" width="415" height="218">
<path d="M414.517 0.481445H0.483124V217.519H414.517V0.481445Z" fill="white"/>
</mask>
<g mask="url(#mask6_7_433)">
<mask id="mask7_7_433" style="mask-type:luminance" maskUnits="userSpaceOnUse" x="0" y="0" width="415" height="218">
<path d="M415 0H0V218H415V0Z" fill="white"/>
</mask>
<g mask="url(#mask7_7_433)">
<path d="M155.706 143.569L154.739 143.067L155.263 141.543L156.793 142.065L156.269 143.549H155.685L155.706 143.569ZM158.725 142.586L159.047 141.523L160.637 141.784L160.376 143.368L159.711 143.428L158.765 143.067M151.619 142.967L150.754 142.305L151.559 140.902L152.948 141.684L152.304 142.967H151.659M162.67 141.945L162.811 140.862L163.335 140.701L164.402 140.842V142.446L163.919 142.586L163.717 142.626L162.791 142.366M147.674 141.644L146.949 140.842L147.996 139.599L149.224 140.641L148.479 141.724H147.815M166.395 140.621L166.334 139.518L167.924 139.197L168.247 140.782L167.482 141.142L166.596 140.942M144.05 139.659L143.466 138.736L144.694 137.714L145.721 138.957L144.916 139.819L144.211 139.779M169.857 138.636L169.595 137.573L170.018 137.232L171.085 136.972L171.669 138.476L170.843 139.017L170.038 138.877M140.85 137.012L140.447 136.009L141.856 135.227L142.641 136.631L141.796 137.333L141.031 137.252M172.876 136.049L172.454 135.047L173.802 134.185L174.648 135.548L173.823 136.29L173.058 136.19M138.192 133.844L137.971 132.781L139.501 132.26L140.024 133.764L139.199 134.265L138.394 134.124M175.413 132.982L174.809 132.079L175.997 131.016L177.063 132.2L176.278 133.122L175.594 133.082M136.079 130.234V129.152L137.649 128.911L137.89 130.495L137.126 130.816L136.26 130.615M177.365 129.493L176.6 128.711L177.587 127.447L178.855 128.43L178.13 129.573H177.486M134.67 126.324L134.831 125.262L136.441 125.302L136.401 126.906L135.716 127.086L134.79 126.786M178.613 125.723L177.748 125.101L178.493 123.678L179.922 124.42L179.298 125.763H178.694M133.965 122.254L134.348 121.231L135.918 121.572L135.596 123.136L134.992 123.176L134.005 122.775M179.197 121.813L178.211 121.372L178.694 119.848L180.224 120.329L179.761 121.853H179.197V121.813ZM134.891 119.206L133.945 118.665L134.549 117.181L136.039 117.782L135.495 119.226H134.911M177.949 117.041L178.231 115.978L179.821 116.178L179.922 116.72L179.64 117.762L178.996 117.863L178.03 117.522M135.475 115.276L134.629 114.574L135.495 113.211L136.864 114.073L136.179 115.296H135.576M176.963 113.311L177.124 112.248H178.734L178.694 113.872L178.01 114.053L177.063 113.772M136.743 111.526L136.039 110.684L137.126 109.501L138.293 110.584L137.528 111.627L136.844 111.587M177.547 110.123L176.641 109.521L177.325 108.078L178.774 108.739L178.191 110.143H177.607M138.655 108.078L138.132 107.115L139.4 106.153L140.366 107.436L139.541 108.278L138.816 108.218M178.593 106.333L178.01 105.411L179.217 104.368L180.284 105.591L179.459 106.493L178.774 106.453M141.212 105.07L140.87 104.047L142.299 103.305L143.044 104.729L142.198 105.351L141.433 105.25M181.089 103.265L180.928 102.202L182.458 101.741L182.921 103.265L182.096 103.706L181.271 103.566M192.483 102.062L192.906 101.06L194.456 101.461L194.033 103.004H193.469L192.483 102.583M144.231 102.483L144.07 101.42L145.62 100.939L146.083 102.463L145.258 102.924L144.433 102.764M189.282 102.543L188.437 101.842L189.302 100.478L190.671 101.34L189.987 102.583H189.383M196.429 101.761L196.63 100.699L198.24 100.739L198.2 102.343L197.495 102.503L196.569 102.202M184.592 101.461L184.894 100.418L186.504 100.638L186.283 102.222L185.639 102.303L184.693 101.962M200.193 100.538L200.132 99.4554L201.703 99.1346L202.025 100.699L201.24 101.08L200.374 100.879M147.613 100.438L147.654 99.3551L149.244 99.1747L149.425 100.759L148.66 101.039L147.774 100.819M167.019 99.8564L167.381 98.8338L168.971 99.1747L168.649 100.759L168.005 100.799L167.059 100.398M163.838 100.458L162.972 99.7963L163.778 98.3927L165.187 99.1747L164.543 100.478H163.939M151.337 99.1145L151.559 98.0518L153.169 98.152L153.068 99.7361L152.384 99.8765L151.438 99.5556M170.944 99.2348L170.904 98.152L172.494 97.8713L172.776 99.4554L171.991 99.7963L171.125 99.5957M160.074 99.5957L159.148 99.0143L159.812 97.5505L161.282 98.1921L160.698 99.5957H160.074ZM155.243 98.4328L155.645 97.4302L157.195 97.8112L156.813 99.3752H156.229L155.263 98.9942M203.575 98.513L203.253 97.4703L204.702 96.7685L205.406 98.2122L204.581 98.8137L203.796 98.7135M174.265 97.1294L173.762 96.1669L175.071 95.2045L176.017 96.5078L175.191 97.3099L174.467 97.2497M206.393 95.7459L205.829 94.8034L207.097 93.8009L208.084 95.0641L207.279 95.9263L206.574 95.8662M176.278 93.7608L175.413 93.1191L176.178 91.6954L177.607 92.4574L177.003 93.7808H176.419M208.486 92.3973L207.721 91.6152L208.708 90.352L209.956 91.3546L209.755 91.8559L209.231 92.4775H208.587M175.534 89.0286L175.755 87.9859L177.365 88.1263L177.224 89.7104L176.56 89.8507L175.614 89.5098M209.755 88.6075L208.829 88.026L209.513 86.5623L210.982 87.244L210.399 88.6276H209.815M176.077 85.9006L175.091 85.4394L175.554 83.9155L177.084 84.3767L176.641 85.9006M209.05 83.7751L209.412 82.7525L211.003 83.0733L210.66 84.6574L210.036 84.6975L209.09 84.3165M176.359 81.9705L175.493 81.2887L176.299 79.9052L177.708 80.7072L177.043 81.9905H176.439M208.305 80.1057L208.426 79.0229L210.036 78.9828L210.077 80.5869L209.352 80.8075L208.426 80.5468M177.567 78.1607L176.882 77.2985L177.989 76.1355L179.157 77.2383L178.372 78.2609H177.687M206.755 76.737L206.614 75.6542L208.164 75.2332L208.587 76.7771L207.782 77.1982L206.936 77.0378M179.62 74.7519L179.157 73.7694L180.506 72.8871L181.371 74.2306L180.546 74.9925L179.781 74.9123M204.46 73.8095H204.44L204.4 73.7293L203.997 72.6866L205.406 71.9046L205.829 72.3257L205.869 72.3658H205.91L206.292 73.4085L205.467 74.1103L204.702 74.01M182.398 71.9247L182.176 70.8619L183.686 70.3205L184.23 71.8244L183.425 72.3457L182.599 72.2054M201.441 71.4434L200.817 70.5411L202.005 69.4583L203.092 70.6414L202.286 71.5838L201.582 71.5236M185.739 69.7792L185.78 68.6964L187.37 68.5159L187.551 70.12L186.786 70.4008L185.901 70.1802M198.039 69.8794L197.214 69.1576L198.099 67.8141L199.448 68.6964L198.764 69.9195H198.14M189.504 68.4959L189.786 67.4331L191.376 67.6537L191.175 69.2378L190.53 69.338L189.584 68.9971M194.355 69.1576L193.409 68.6362L193.973 67.1123L195.482 67.6938L194.959 69.1576H194.355Z" fill="white"/>
</g>
</g>
<mask id="mask8_7_433" style="mask-type:luminance" maskUnits="userSpaceOnUse" x="0" y="0" width="415" height="218">
<path d="M414.517 0.481445H0.483124V217.519H414.517V0.481445Z" fill="white"/>
</mask>
<g mask="url(#mask8_7_433)">
<mask id="mask9_7_433" style="mask-type:luminance" maskUnits="userSpaceOnUse" x="0" y="0" width="415" height="218">
<path d="M415 0H0V218H415V0Z" fill="white"/>
</mask>
<g mask="url(#mask9_7_433)">
<path d="M155.706 143.569L154.739 143.067L155.263 141.543L156.793 142.065L156.269 143.549H155.685L155.706 143.569ZM158.725 142.586L159.047 141.523L160.637 141.784L160.376 143.368L159.711 143.428L158.765 143.067M151.619 142.967L150.754 142.305L151.559 140.902L152.948 141.684L152.304 142.967H151.659M162.67 141.945L162.811 140.862L163.335 140.701L164.402 140.842V142.446L163.919 142.586L163.717 142.626L162.791 142.366M147.674 141.644L146.949 140.842L147.996 139.599L149.224 140.641L148.479 141.724H147.815M166.395 140.621L166.334 139.518L167.924 139.197L168.247 140.782L167.482 141.142L166.596 140.942M144.05 139.659L143.466 138.736L144.694 137.714L145.721 138.957L144.916 139.819L144.211 139.779M169.857 138.636L169.595 137.573L170.018 137.232L171.085 136.972L171.669 138.476L170.843 139.017L170.038 138.877M140.85 137.012L140.447 136.009L141.856 135.227L142.641 136.631L141.796 137.333L141.031 137.252M172.876 136.049L172.454 135.047L173.802 134.185L174.648 135.548L173.823 136.29L173.058 136.19M138.192 133.844L137.971 132.781L139.501 132.26L140.024 133.764L139.199 134.265L138.394 134.124M175.413 132.982L174.809 132.079L175.997 131.016L177.063 132.2L176.278 133.122L175.594 133.082M136.079 130.234V129.152L137.649 128.911L137.89 130.495L137.126 130.816L136.26 130.615M177.365 129.493L176.6 128.711L177.587 127.447L178.855 128.43L178.13 129.573H177.486M134.67 126.324L134.831 125.262L136.441 125.302L136.401 126.906L135.716 127.086L134.79 126.786M178.613 125.723L177.748 125.101L178.493 123.678L179.922 124.42L179.298 125.763H178.694M133.965 122.254L134.348 121.231L135.918 121.572L135.596 123.136L134.992 123.176L134.005 122.775M179.197 121.813L178.211 121.372L178.694 119.848L180.224 120.329L179.761 121.853H179.197V121.813ZM134.891 119.206L133.945 118.665L134.549 117.181L136.039 117.782L135.495 119.226H134.911M177.949 117.041L178.231 115.978L179.821 116.178L179.922 116.72L179.64 117.762L178.996 117.863L178.03 117.522M135.475 115.276L134.629 114.574L135.495 113.211L136.864 114.073L136.179 115.296H135.576M176.963 113.311L177.124 112.248H178.734L178.694 113.872L178.01 114.053L177.063 113.772M136.743 111.526L136.039 110.684L137.126 109.501L138.293 110.584L137.528 111.627L136.844 111.587M177.547 110.123L176.641 109.521L177.325 108.078L178.774 108.739L178.191 110.143H177.607M138.655 108.078L138.132 107.115L139.4 106.153L140.366 107.436L139.541 108.278L138.816 108.218M178.593 106.333L178.01 105.411L179.217 104.368L180.284 105.591L179.459 106.493L178.774 106.453M141.212 105.07L140.87 104.047L142.299 103.305L143.044 104.729L142.198 105.351L141.433 105.25M181.089 103.265L180.928 102.202L182.458 101.741L182.921 103.265L182.096 103.706L181.271 103.566M192.483 102.062L192.906 101.06L194.456 101.461L194.033 103.004H193.469L192.483 102.583M144.231 102.483L144.07 101.42L145.62 100.939L146.083 102.463L145.258 102.924L144.433 102.764M189.282 102.543L188.437 101.842L189.302 100.478L190.671 101.34L189.987 102.583H189.383M196.429 101.761L196.63 100.699L198.24 100.739L198.2 102.343L197.495 102.503L196.569 102.202M184.592 101.461L184.894 100.418L186.504 100.638L186.283 102.222L185.639 102.303L184.693 101.962M200.193 100.538L200.132 99.4554L201.703 99.1346L202.025 100.699L201.24 101.08L200.374 100.879M147.613 100.438L147.654 99.3551L149.244 99.1747L149.425 100.759L148.66 101.039L147.774 100.819M167.019 99.8564L167.381 98.8338L168.971 99.1747L168.649 100.759L168.005 100.799L167.059 100.398M163.838 100.458L162.972 99.7963L163.778 98.3927L165.187 99.1747L164.543 100.478H163.939M151.337 99.1145L151.559 98.0518L153.169 98.152L153.068 99.7361L152.384 99.8765L151.438 99.5556M170.944 99.2348L170.904 98.152L172.494 97.8713L172.776 99.4554L171.991 99.7963L171.125 99.5957M160.074 99.5957L159.148 99.0143L159.812 97.5505L161.282 98.1921L160.698 99.5957H160.074ZM155.243 98.4328L155.645 97.4302L157.195 97.8112L156.813 99.3752H156.229L155.263 98.9942M203.575 98.513L203.253 97.4703L204.702 96.7685L205.406 98.2122L204.581 98.8137L203.796 98.7135M174.265 97.1294L173.762 96.1669L175.071 95.2045L176.017 96.5078L175.191 97.3099L174.467 97.2497M206.393 95.7459L205.829 94.8034L207.097 93.8009L208.084 95.0641L207.279 95.9263L206.574 95.8662M176.278 93.7608L175.413 93.1191L176.178 91.6954L177.607 92.4574L177.003 93.7808H176.419M208.486 92.3973L207.721 91.6152L208.708 90.352L209.956 91.3546L209.755 91.8559L209.231 92.4775H208.587M175.534 89.0286L175.755 87.9859L177.365 88.1263L177.224 89.7104L176.56 89.8507L175.614 89.5098M209.755 88.6075L208.829 88.026L209.513 86.5623L210.982 87.244L210.399 88.6276H209.815M176.077 85.9006L175.091 85.4394L175.554 83.9155L177.084 84.3767L176.641 85.9006M209.05 83.7751L209.412 82.7525L211.003 83.0733L210.66 84.6574L210.036 84.6975L209.09 84.3165M176.359 81.9705L175.493 81.2887L176.299 79.9052L177.708 80.7072L177.043 81.9905H176.439M208.305 80.1057L208.426 79.0229L210.036 78.9828L210.077 80.5869L209.352 80.8075L208.426 80.5468M177.567 78.1607L176.882 77.2985L177.989 76.1355L179.157 77.2383L178.372 78.2609H177.687M206.755 76.737L206.614 75.6542L208.164 75.2332L208.587 76.7771L207.782 77.1982L206.936 77.0378M179.62 74.7519L179.157 73.7694L180.506 72.8871L181.371 74.2306L180.546 74.9925L179.781 74.9123M204.46 73.8095H204.44L204.4 73.7293L203.997 72.6866L205.406 71.9046L205.829 72.3257L205.869 72.3658H205.91L206.292 73.4085L205.467 74.1103L204.702 74.01M182.398 71.9247L182.176 70.8619L183.686 70.3205L184.23 71.8244L183.425 72.3457L182.599 72.2054M201.441 71.4434L200.817 70.5411L202.005 69.4583L203.092 70.6414L202.286 71.5838L201.582 71.5236M185.739 69.7792L185.78 68.6964L187.37 68.5159L187.551 70.12L186.786 70.4008L185.901 70.1802M198.039 69.8794L197.214 69.1576L198.099 67.8141L199.448 68.6964L198.764 69.9195H198.14M189.504 68.4959L189.786 67.4331L191.376 67.6537L191.175 69.2378L190.53 69.338L189.584 68.9971M194.355 69.1576L193.409 68.6362L193.973 67.1123L195.482 67.6938L194.959 69.1576H194.355Z" fill="white"/>
</g>
</g>
</g>
<path d="M161.402 137.754L160.597 137.333L161.04 136.049L162.348 136.491L161.926 137.734H161.402V137.754ZM163.999 136.912L164.281 136.049L165.63 136.27L165.408 137.614L164.845 137.654L164.059 137.333M157.94 137.233L157.195 136.671L157.88 135.508L158.343 135.628L159.087 136.19L158.524 137.293H158M167.321 136.35L167.441 135.408H168.81V136.751L168.206 136.932L167.421 136.711M154.578 136.11L153.954 135.428L154.82 134.385L155.887 135.247L155.243 136.17H154.679M170.521 135.227L170.481 134.285L171.81 134.024L172.091 135.348L171.407 135.669L170.662 135.508M151.498 134.385L150.995 133.603L152.042 132.721L152.907 133.784L152.223 134.546L151.639 134.506M173.42 133.523L173.219 132.621L174.467 132.119L174.97 133.383L174.286 133.844L173.601 133.724M148.761 132.139L148.418 131.277L149.606 130.595L150.291 131.779L149.586 132.36L148.942 132.28M175.997 131.357L175.614 130.515L176.782 129.793L177.486 130.956L176.802 131.578L176.158 131.498M146.466 129.493L146.285 128.59L147.593 128.149L147.855 128.53L148.036 129.432L147.352 129.854L146.647 129.713M178.13 128.771L177.607 128.009L178.613 127.086L179.539 128.089L179.298 128.49L178.855 128.891L178.251 128.851M144.694 126.545V125.542L146.043 125.322L146.265 126.685L145.6 126.966L144.835 126.786M179.781 125.944L179.137 125.282L179.962 124.199L181.049 125.041L180.888 125.462L180.425 125.984H179.882M143.527 123.237L143.668 122.334H145.037L144.996 123.738L144.392 123.898L143.607 123.658M180.868 122.735L180.103 122.194L180.727 120.991L181.955 121.612L181.432 122.755H180.928M142.923 119.768L143.245 118.905L144.574 119.166L144.292 120.51L143.768 120.55L142.943 120.209M181.391 119.387L180.566 118.986L180.969 117.682L182.277 118.083L181.875 119.367H181.391V119.387ZM143.708 117.161L142.903 116.72L143.406 115.457L144.674 115.978L144.231 117.201H143.748M180.345 115.336L180.566 114.454L181.915 114.594L181.754 115.958L181.19 116.038L180.385 115.737M144.211 113.832L143.507 113.231L144.231 112.088L145.399 112.81L144.815 113.873H144.292M179.499 112.168L179.64 111.246H181.009V112.629L180.405 112.77L179.62 112.529M145.298 110.644L144.715 109.922L145.641 108.92L146.627 109.862L145.983 110.744H145.419M180.002 109.421L179.217 108.92L179.781 107.697L181.029 108.258L180.526 109.421H180.023M146.929 107.697L146.466 106.895L146.748 106.514L147.553 106.072L148.378 107.135L147.674 107.857L147.07 107.797M180.848 106.173L180.325 105.411L181.371 104.529L182.257 105.551L181.995 105.932L181.573 106.313L180.989 106.273M149.063 105.07L148.741 104.208L149.968 103.586L150.593 104.789L149.888 105.351L149.244 105.27M182.962 103.566L182.821 102.644L184.129 102.243L184.512 103.546L183.827 103.927L183.123 103.807M192.644 102.523L193.006 101.681L194.335 102.022L193.973 103.345H193.49L192.644 102.985M151.599 102.844L151.458 101.942L152.767 101.541L153.169 102.844L152.465 103.225L151.78 103.085M189.906 102.904L189.202 102.303L189.906 101.14L191.074 101.862L190.51 102.924H189.987M196.006 102.243L196.167 101.32L197.536 101.36L197.495 102.724L196.892 102.864L196.106 102.604M185.981 102.022L186.223 101.14L187.571 101.3L187.39 102.664L186.847 102.744L186.021 102.443M154.558 101.16V100.217L155.947 100.057L156.108 101.421L155.464 101.661L154.699 101.461M199.247 101.24L199.206 100.318L200.555 100.037L200.837 101.36L200.153 101.681L199.428 101.521M171.045 100.679L171.367 99.8164L172.695 100.097L172.413 101.421L171.89 101.461L171.085 101.12M168.327 101.16L167.582 100.598L168.267 99.4354L169.454 100.117L168.891 101.22H168.387M157.698 100.017L157.88 99.0946L159.248 99.1748L159.168 100.538L158.584 100.659L157.799 100.378M174.447 100.057L174.406 99.1347L175.755 98.894L175.997 100.237L175.332 100.538L174.587 100.358M165.187 100.378L164.402 99.8766L164.965 98.6334L166.193 99.2149L165.71 100.378H165.187ZM161.08 99.3753L161.422 98.5131L162.771 98.8339L162.429 100.157H161.946L161.1 99.8164M202.166 99.4154L201.904 98.5331L203.132 97.9516L203.716 99.1948L203.011 99.6961L202.347 99.5958M177.265 98.2323L176.822 97.4303L177.929 96.6282L178.734 97.7311L178.03 98.4128L177.406 98.3527M204.561 97.0493L204.078 96.2472L205.145 95.385L205.99 96.4478L205.306 97.1696L204.702 97.1295M178.996 95.365L178.231 94.8236L178.875 93.6205L180.083 94.2621L179.56 95.385H179.056M206.353 94.202L205.708 93.5202L206.554 92.4575L207.621 93.2997L207.44 93.7408L206.997 94.2621H206.453M178.332 91.3547L178.533 90.4524L179.882 90.5727L179.761 91.9362L179.197 92.0364L178.392 91.7557M207.419 91.0138L206.634 90.4925L206.715 90.0313L207.218 89.2693L208.466 89.8508L207.963 91.0339H207.46M178.815 88.7079L177.969 88.3069L178.372 87.0035L179.68 87.4045L179.278 88.7079H178.815ZM206.816 86.9032L207.118 86.021L208.466 86.2816L208.205 87.605L207.681 87.6451L206.876 87.3243M179.016 85.3593L178.291 84.7778L178.996 83.5947L180.163 84.2965L179.6 85.3793H179.076M206.171 83.8354L206.252 82.913L207.621 82.8528L207.681 84.2163L207.057 84.4169L206.272 84.1963M180.043 82.1711L179.459 81.4492L180.405 80.4467L181.391 81.3891L180.727 82.2513L180.163 82.2112M204.843 80.9479L204.722 80.0256L206.031 79.6646L206.393 80.988L205.708 81.349L205.004 81.2086M181.754 79.2837L181.351 78.4415L182.519 77.6996L183.264 78.8425L182.559 79.4842L181.935 79.424M202.87 78.4816L202.83 78.4215L202.488 77.5592L203.675 76.8975L204.078 77.2785L204.42 78.1608L203.716 78.7222L203.071 78.642M184.109 76.8975L183.908 75.9952L184.31 75.7145L185.216 75.514L185.679 76.7973L184.975 77.2384L184.29 77.0981M200.273 76.4965L199.75 75.7346L200.756 74.8122L201.682 75.8148L200.998 76.6168L200.414 76.5767M186.947 75.113L186.988 74.1906L188.336 74.0502L188.497 75.4137L187.853 75.6343L187.088 75.4338M197.375 75.1932L196.69 74.5716L197.455 73.4487L198.582 74.2106L197.999 75.2533H197.475M190.148 74.0101L190.39 73.1279L191.738 73.2883L191.577 74.6518L190.993 74.732L190.208 74.4513M194.275 74.5916L193.449 74.1505L193.932 72.8672L195.221 73.3484L194.778 74.5716H194.254L194.275 74.5916Z" fill="white"/>
<path d="M131.771 167.51L130.201 166.708C130.301 164.923 131.066 164.262 131.972 164.302L133.542 165.104C133.442 166.848 132.737 167.53 131.892 167.53H131.831M136.723 165.886L137.246 164.202C139.038 163.981 139.843 164.603 139.944 165.485L139.42 167.189L138.394 167.31L136.824 166.728M125.088 166.528L123.679 165.445C124.101 163.7 124.967 163.179 125.833 163.38L127.242 164.462C126.839 166.066 126.195 166.568 125.45 166.568H125.209M143.104 164.863L143.326 163.099C145.037 162.577 145.942 163.039 146.204 163.901L145.983 165.665L144.815 166.006L143.326 165.565M118.686 164.342L117.499 163.019C118.223 161.394 119.19 161.033 119.995 161.394L121.183 162.698C120.538 164.121 119.935 164.482 119.331 164.482L118.888 164.442M149.183 162.658L149.083 160.873C150.673 160.051 151.639 160.372 152.062 161.154L152.143 162.918L150.854 163.52L149.445 163.199M112.788 161.054L111.862 159.55C112.869 158.066 113.896 157.885 114.62 158.387L115.546 159.911C114.741 161.094 114.218 161.334 113.714 161.334L113.07 161.254M154.8 159.409L154.377 157.705C155.806 156.622 156.813 156.742 157.356 157.444L157.759 159.169L156.41 160.051L155.102 159.83M107.595 156.783L106.951 155.138C108.199 153.855 109.225 153.855 109.89 154.477L110.534 156.121L109.165 157.224L107.937 157.083M159.732 155.219L159.027 153.614C160.235 152.291 161.261 152.251 161.926 152.852L162.63 154.457C161.704 155.479 161.282 155.66 160.839 155.66L160.054 155.519M103.206 151.629L102.884 149.905C104.354 148.862 105.34 149.043 105.864 149.765L106.206 151.489L104.877 152.291L103.529 152.07M163.858 150.246L162.872 148.762C163.818 147.258 164.824 147.018 165.569 147.479L166.556 148.962C165.771 150.206 165.247 150.486 164.704 150.486L164.12 150.406M99.8045 145.794V144.01C101.415 143.248 102.381 143.609 102.743 144.411L102.784 146.195L101.536 146.717L100.106 146.376M166.998 144.591L165.771 143.348C166.415 141.684 167.381 141.283 168.206 141.604L169.454 142.867C168.871 144.331 168.267 144.712 167.622 144.712L167.22 144.671M97.5097 139.478L97.7915 137.734C99.5227 137.272 100.408 137.794 100.65 138.656L100.348 140.421L99.2006 140.681L97.6909 140.2M169.112 138.516L167.663 137.493C168.005 135.749 168.871 135.187 169.736 135.348L171.185 136.37C170.863 138.014 170.179 138.556 169.414 138.556H169.193M96.3824 132.861L96.9863 131.197C98.7779 131.056 99.563 131.718 99.6233 132.621L99.0396 134.285L98.0532 134.365L96.4629 133.723M170.078 132.159L168.468 131.397C168.508 129.613 169.233 128.891 170.139 128.911L171.749 129.673C171.709 131.458 170.984 132.159 170.139 132.159H170.098H170.078ZM97.9123 127.908L96.3824 127.026C96.5636 125.262 97.3487 124.62 98.2545 124.7L99.8045 125.562C99.6233 127.287 98.9188 127.888 98.1136 127.888H97.9324L97.9123 127.908ZM168.025 124.379L168.468 122.675C170.259 122.394 171.085 122.996 171.226 123.878L170.763 125.582L169.716 125.743L168.166 125.181M98.8383 121.552L97.4896 120.409C97.9928 118.685 98.8987 118.183 99.7441 118.444L101.093 119.587C100.65 121.151 99.9857 121.612 99.2811 121.612H98.9993M166.435 118.344L166.717 116.599C168.428 116.118 169.334 116.639 169.575 117.482L169.293 119.246L168.146 119.527L166.636 119.066M100.912 115.416L99.7844 114.053C100.569 112.469 101.556 112.148 102.341 112.529L103.468 113.892C102.784 115.256 102.24 115.597 101.636 115.597L101.133 115.537M167.361 113.11L165.871 112.148C166.153 110.383 166.958 109.782 167.844 109.902L169.334 110.845L169.193 111.727L168.367 113.11H167.421M104.032 109.782L103.166 108.238C104.213 106.814 105.24 106.654 105.964 107.195L106.83 108.739C105.964 109.882 105.481 110.103 104.998 110.103L104.314 110.002M169.052 106.894L168.085 105.411L168.589 104.649L170.078 103.686C171.568 104.649 171.789 105.671 171.306 106.413L170.481 107.155L169.334 107.075M108.138 104.789L107.555 103.125C108.863 101.902 109.89 101.942 110.494 102.583L111.077 104.268L109.729 105.33L108.481 105.15M173.078 101.882L172.796 100.137C174.306 99.1746 175.292 99.3751 175.775 100.137L176.057 101.882L174.728 102.643L173.38 102.383M191.658 99.9366L192.342 98.3124C194.134 98.2723 194.858 98.9941 194.878 99.8764L194.174 101.501H193.248L191.638 100.819M113.05 100.598L112.768 98.8538C114.278 97.8913 115.264 98.0918 115.747 98.8538L116.029 100.618L114.701 101.36L113.352 101.1M186.424 100.678L185.075 99.5556C185.558 97.8512 186.444 97.3298 187.31 97.5905L188.678 98.7134C188.236 100.297 187.571 100.759 186.887 100.759H186.585M198.079 99.4353L198.381 97.6908C200.112 97.2296 200.998 97.771 201.219 98.6332L200.917 100.378L199.77 100.638L198.26 100.137M178.835 98.9941L179.318 97.2897C181.11 97.0291 181.915 97.6306 182.056 98.5329L181.573 100.237L180.526 100.378L178.976 99.7962M204.239 97.4903L204.118 95.7057C205.708 94.8836 206.675 95.1843 207.097 95.9664L207.218 97.7309L205.93 98.3324L204.521 98.0116M118.626 97.37L118.666 95.5854C120.317 94.9036 121.263 95.2846 121.605 96.1067L121.565 97.8712L120.337 98.3324L118.888 97.9514M150.27 96.4275L150.854 94.7633C152.646 94.6229 153.431 95.2645 153.491 96.1669L152.887 97.8311L151.861 97.9114L150.331 97.2697M145.097 97.37L143.668 96.3072C144.091 94.5627 144.956 94.0414 145.822 94.2419L147.251 95.3247C146.848 96.9288 146.204 97.4301 145.479 97.4301H145.238M124.746 95.1242L125.108 93.3998C126.859 93.0188 127.725 93.5802 127.906 94.4625L127.503 96.1869L126.396 96.4275L124.866 95.9062M156.672 95.3247L156.611 93.5401C158.202 92.7381 159.188 93.0789 159.591 93.881L159.671 95.6656L158.383 96.227L156.974 95.9062M138.957 95.9062L137.448 94.9638C137.709 93.1792 138.514 92.5776 139.4 92.718L140.91 93.6604C140.668 95.3447 139.984 95.9062 139.199 95.9062H139.038M131.107 94.0013L131.771 92.3571H132.677L134.307 92.9987C134.368 94.7633 133.663 95.5252 132.777 95.5653H132.737L131.147 94.8635M209.815 94.1016L209.292 92.4172C210.64 91.2342 211.667 91.2943 212.251 91.9761L212.774 93.6604L211.425 94.643L210.137 94.4625M162.107 91.8558L161.261 90.3118C162.369 88.8882 163.375 88.7879 164.08 89.3092L164.905 90.8733C164.039 91.9962 163.576 92.1967 163.073 92.1967L162.389 92.0764M214.405 89.59L213.499 88.0661C214.545 86.6223 215.552 86.4619 216.277 86.9632L217.183 88.4871C216.337 89.6501 215.854 89.9108 215.331 89.9108L214.686 89.8105M165.428 86.3617L163.979 85.3391C164.341 83.5745 165.207 83.0331 166.072 83.1935L167.502 84.2362C167.159 85.8604 166.495 86.3817 165.73 86.3817H165.509M217.847 84.1159L216.619 82.8326C217.303 81.1884 218.229 80.7874 219.055 81.1282L220.283 82.3915C219.699 83.8552 219.095 84.2362 218.451 84.2362H218.048M164.16 78.6619L164.563 76.9575C166.314 76.6166 167.18 77.1781 167.341 78.0604L166.938 79.7848L165.851 79.9853L164.321 79.464M219.9 78.0002L218.41 77.0377C218.672 75.2531 219.497 74.6716 220.383 74.792L221.893 75.7344C221.631 77.4187 220.947 77.9801 220.162 77.9801H220.001M165.066 73.5688L163.456 72.8069C163.496 71.0423 164.22 70.3205 165.126 70.3205L166.737 71.0624V71.9647L165.992 73.5488H165.066V73.5688ZM218.733 70.12L219.336 68.4557C221.128 68.3153 221.893 68.977 221.973 69.8593L221.37 71.5236L220.383 71.6238L218.793 70.9822M165.509 67.1523L164.1 66.0696C164.543 64.3451 165.428 63.8238 166.294 64.0243L167.683 65.1071C167.28 66.7112 166.636 67.1924 165.911 67.1924H165.65M217.525 64.1847L217.706 62.4202C219.417 61.8587 220.323 62.34 220.605 63.1821L220.423 64.9467L219.236 65.3076L217.746 64.8665M167.461 61.0166L166.354 59.633C167.18 58.0489 168.146 57.7482 168.951 58.1492L170.058 59.5328L169.656 60.3148L168.79 61.177L167.683 61.1369M214.988 58.7307L214.747 56.9662C216.277 56.0237 217.263 56.2644 217.726 57.0063L217.947 58.7708L216.639 59.4726L215.27 59.2119M170.783 55.5024L170.018 53.8983C171.206 52.5548 172.212 52.4746 172.897 53.0561L173.661 54.6602C172.735 55.7029 172.313 55.9034 171.85 55.9034L171.085 55.7631M211.184 53.9785L211.144 53.9384L211.083 53.8782L210.419 52.1939C211.667 50.9307 212.694 50.9307 213.358 51.5523L213.479 51.6726L214.123 53.3569L212.774 54.4597L211.546 54.3194M175.272 50.8705L174.91 49.1461C176.359 48.1034 177.365 48.2839 177.889 48.9857L178.231 50.7301L176.882 51.5523L175.554 51.3317M206.272 50.1286L205.286 48.6648C206.212 47.1409 207.198 46.8803 207.963 47.3615L208.969 48.8253C208.205 50.0684 207.661 50.3492 207.118 50.3492L206.554 50.269M180.727 47.4417L180.767 45.6772C182.418 44.9954 183.384 45.3964 183.706 46.2186L183.666 48.0031L182.438 48.4643L181.009 48.0833M200.716 47.6222L199.388 46.4391C199.931 44.7347 200.857 44.2736 201.703 44.5342L203.031 45.7173C202.528 47.2412 201.884 47.6623 201.199 47.6623H200.877M186.826 45.3363L187.289 43.6319C189.061 43.3512 189.886 43.9527 190.027 44.835L189.564 46.5394L188.497 46.6998L186.947 46.1183M194.758 46.4592L193.208 45.597C193.349 43.8124 194.114 43.1707 194.999 43.2309L196.569 44.073C196.428 45.8175 195.704 46.4391 194.878 46.4391H194.758V46.4592Z" fill="white"/>
</svg>
