<svg width="30" height="29" viewBox="0 0 30 29" fill="none" xmlns="http://www.w3.org/2000/svg">
<path d="M28.9058 10.0151C31.3828 17.6293 27.2176 25.8074 19.6034 28.2843C11.9892 30.7613 3.8111 26.5961 1.33414 18.9819C-1.14281 11.3677 3.02235 3.1896 10.6366 0.712648C12.0861 0.242165 13.6013 0 15.1234 0C21.4023 0.00345943 26.9651 4.04408 28.9058 10.0151ZM15.1234 1.30767C7.83788 1.31804 1.93954 7.23022 1.94992 14.5192C1.9603 21.8048 7.87247 27.7031 15.1615 27.6928C22.4471 27.6824 28.3454 21.7702 28.335 14.4812C28.3316 13.1009 28.1136 11.7309 27.6881 10.4198C25.9203 4.97813 20.8453 1.29729 15.1234 1.30767Z" fill="white"/>
<path fill-rule="evenodd" clip-rule="evenodd" d="M17.492 9.50093C17.9659 9.50093 18.4572 9.50093 18.9138 9.50093H19.1075V7.03782C18.855 7.03782 18.5955 6.97901 18.3257 6.96171C17.8414 6.96171 17.3605 6.96171 16.8762 6.96171C16.1428 6.95825 15.4302 7.18311 14.8282 7.59824C14.1605 8.08948 13.7177 8.82634 13.6001 9.64623C13.5448 9.97141 13.5136 10.3001 13.5032 10.6322C13.5032 11.1822 13.5032 11.7323 13.5032 12.2858V12.566H11.1543V15.3093H13.4825V22.2005H16.3815V15.2816H18.7097L18.9899 12.566H16.2846C16.2846 12.566 16.2846 11.203 16.2846 10.6322C16.3607 9.76039 16.8451 9.51823 17.492 9.50093Z" fill="white"/>
</svg>
