<svg width="30" height="29" viewBox="0 0 30 29" fill="none" xmlns="http://www.w3.org/2000/svg">
<path d="M29.1626 10.0151C31.6396 17.6293 27.4744 25.8074 19.8602 28.2843C12.246 30.7613 4.06793 26.5961 1.59098 18.9819C-0.885973 11.3677 3.27918 3.1896 10.8934 0.712648C12.3429 0.242165 13.8581 0 15.3803 0C21.6557 0.00345943 27.2184 4.04408 29.1626 10.0151ZM15.3803 1.30767C8.09471 1.31804 2.19638 7.23022 2.20676 14.5192C2.21714 21.8048 8.12931 27.7031 15.4183 27.6928C22.7039 27.6824 28.6022 21.7702 28.5918 14.4812C28.5884 13.1009 28.3704 11.7309 27.9449 10.4198C26.1737 4.97813 21.1022 1.29729 15.3803 1.30767Z" fill="white"/>
<path fill-rule="evenodd" clip-rule="evenodd" d="M9.52217 19.3317C8.99288 19.1829 8.56737 18.7851 8.38056 18.2696C7.88932 16.917 7.74402 11.2816 8.68844 10.1711C8.99633 9.79748 9.44261 9.55878 9.92693 9.51381C12.4696 9.24397 20.3364 9.28203 21.2427 9.61067C21.7478 9.76981 22.156 10.1469 22.3532 10.6347C22.8929 12.0254 22.9033 17.1003 22.284 18.4426C22.1145 18.792 21.8308 19.0757 21.4814 19.2452C20.5405 19.7849 10.7676 19.7745 9.52217 19.3317ZM13.5628 16.6818L18.1431 14.3051L13.5628 11.9077V16.6818Z" fill="white"/>
</svg>
